M48
; DRILL file {KiCad (5.1.9)-1} date 03/13/21 11:21:58
; FORMAT={-:-/ absolute / inch / decimal}
; #@! TF.CreationDate,2021-03-13T11:21:58-03:00
; #@! TF.GenerationSoftware,Kicad,Pcbnew,(5.1.9)-1
; #@! TF.FileFunction,Plated,1,2,PTH
FMAT,2
INCH
T1C0.0157
T2C0.0374
T3C0.0394
T4C0.0433
%
G90
G05
T1
X1.7013Y-2.8565
X1.7348Y-2.6196
X1.7386Y-2.7749
X1.7454Y-2.7073
X1.7925Y-2.8697
X1.9419Y-2.9799
X2.6016Y-3.6552
X2.6776Y-3.5895
X2.7868Y-3.4229
X2.7871Y-3.6308
X2.8062Y-3.5628
X2.8113Y-3.8077
X2.8202Y-3.2076
X2.8425Y-3.348
X2.8485Y-3.7862
X2.8556Y-3.6307
X2.8557Y-3.6716
X2.86Y-3.452
X2.8846Y-3.334
X2.8871Y-3.2098
X2.9347Y-3.4806
X2.9452Y-3.6675
X2.9855Y-3.6714
X2.9917Y-3.6293
X2.9945Y-3.3355
X3.0268Y-3.7815
X3.0963Y-3.7817
X3.1243Y-3.3946
X3.1246Y-3.6112
X3.1805Y-3.2281
X3.1985Y-3.1133
X3.1985Y-2.9245
X3.2742Y-3.2795
X3.3099Y-3.6158
X3.3267Y-3.2535
X3.4093Y-2.8253
X3.6552Y-3.7153
X3.9403Y-3.6233
T2
X1.4953Y-4.1713
X1.5937Y-4.1713
X1.6921Y-4.1713
X1.7906Y-4.1713
X2.1248Y-4.1705
X2.2232Y-4.1705
X2.3217Y-4.1705
X2.7146Y-4.1673
X2.813Y-4.1673
X2.9114Y-4.1673
X3.0098Y-4.1673
X3.502Y-4.1657
X3.6004Y-4.1657
X3.6988Y-4.1657
X3.7972Y-4.1657
T3
X1.0124Y-2.701
X1.0124Y-2.801
X1.0124Y-2.901
X1.0124Y-3.001
X1.0124Y-3.101
X1.0124Y-3.201
X1.1134Y-2.7
X1.1134Y-2.8
X1.1134Y-2.9
X1.1134Y-3.0
X1.1134Y-3.1
X1.1134Y-3.2
X1.1937Y-2.2634
X1.1937Y-2.3634
X1.2197Y-2.6996
X1.2197Y-2.7996
X1.2197Y-2.8996
X1.2197Y-2.9996
X1.2197Y-3.0996
X1.2197Y-3.1996
X1.2937Y-2.2634
X1.2937Y-2.3634
X1.3937Y-2.2634
X1.3937Y-2.3634
X1.4937Y-2.2634
X1.4937Y-2.3634
X1.5937Y-2.2634
X1.5937Y-2.3634
X1.6937Y-2.2634
X1.6937Y-2.3634
X1.7937Y-2.2634
X1.7937Y-2.3634
X1.8937Y-2.2634
X1.8937Y-2.3634
X1.9937Y-2.2634
X1.9937Y-2.3634
X2.0937Y-2.2634
X2.0937Y-2.3634
X2.1937Y-2.2634
X2.1937Y-2.3634
X2.2937Y-2.2634
X2.2937Y-2.3634
X2.3937Y-2.2634
X2.3937Y-2.3634
X2.4937Y-2.2634
X2.4937Y-2.3634
X2.5937Y-2.2634
X2.5937Y-2.3634
X2.6937Y-2.2634
X2.6937Y-2.3634
X2.7937Y-2.2634
X2.7937Y-2.3634
X2.8937Y-2.2634
X2.8937Y-2.3634
X2.9937Y-2.2634
X2.9937Y-2.3634
X3.0937Y-2.2634
X3.0937Y-2.3634
X3.5685Y-2.4224
X3.5685Y-2.5224
X3.6685Y-2.4224
X3.6685Y-2.5224
X3.7685Y-2.4224
X3.7685Y-2.5224
X3.8685Y-2.4224
X3.8685Y-2.5224
X3.9685Y-2.4224
X3.9685Y-2.5224
T4
X2.6406Y-2.613
X2.6406Y-2.8689
X2.8177Y-2.613
X2.8177Y-2.8689
T0
M30
