%TF.GenerationSoftware,KiCad,Pcbnew,(5.1.9)-1*%
%TF.CreationDate,2021-03-13T11:21:55-03:00*%
%TF.ProjectId,carcaraFC,63617263-6172-4614-9643-2e6b69636164,rev?*%
%TF.SameCoordinates,Original*%
%TF.FileFunction,Soldermask,Bot*%
%TF.FilePolarity,Negative*%
%FSLAX46Y46*%
G04 Gerber Fmt 4.6, Leading zero omitted, Abs format (unit mm)*
G04 Created by KiCad (PCBNEW (5.1.9)-1) date 2021-03-13 11:21:55*
%MOMM*%
%LPD*%
G01*
G04 APERTURE LIST*
%ADD10O,1.700000X1.950000*%
%ADD11O,1.700000X1.700000*%
%ADD12R,1.700000X1.700000*%
%ADD13C,2.000000*%
G04 APERTURE END LIST*
D10*
%TO.C,J10*%
X58970000Y-105930000D03*
X56470000Y-105930000D03*
G36*
G01*
X53120000Y-106655000D02*
X53120000Y-105205000D01*
G75*
G02*
X53370000Y-104955000I250000J0D01*
G01*
X54570000Y-104955000D01*
G75*
G02*
X54820000Y-105205000I0J-250000D01*
G01*
X54820000Y-106655000D01*
G75*
G02*
X54570000Y-106905000I-250000J0D01*
G01*
X53370000Y-106905000D01*
G75*
G02*
X53120000Y-106655000I0J250000D01*
G01*
G37*
%TD*%
%TO.C,J1*%
G36*
G01*
X37130000Y-106675000D02*
X37130000Y-105225000D01*
G75*
G02*
X37380000Y-104975000I250000J0D01*
G01*
X38580000Y-104975000D01*
G75*
G02*
X38830000Y-105225000I0J-250000D01*
G01*
X38830000Y-106675000D01*
G75*
G02*
X38580000Y-106925000I-250000J0D01*
G01*
X37380000Y-106925000D01*
G75*
G02*
X37130000Y-106675000I0J250000D01*
G01*
G37*
X40480000Y-105950000D03*
X42980000Y-105950000D03*
X45480000Y-105950000D03*
%TD*%
D11*
%TO.C,J2*%
X25715000Y-68605000D03*
X25715000Y-71145000D03*
X25715000Y-73685000D03*
X25715000Y-76225000D03*
X25715000Y-78765000D03*
D12*
X25715000Y-81305000D03*
%TD*%
%TO.C,J3*%
X90640000Y-64070000D03*
D11*
X90640000Y-61530000D03*
X93180000Y-64070000D03*
X93180000Y-61530000D03*
X95720000Y-64070000D03*
X95720000Y-61530000D03*
X98260000Y-64070000D03*
X98260000Y-61530000D03*
X100800000Y-64070000D03*
X100800000Y-61530000D03*
%TD*%
D12*
%TO.C,J4*%
X30980000Y-81270000D03*
D11*
X30980000Y-78730000D03*
X30980000Y-76190000D03*
X30980000Y-73650000D03*
X30980000Y-71110000D03*
X30980000Y-68570000D03*
%TD*%
D12*
%TO.C,J6*%
X28280000Y-81280000D03*
D11*
X28280000Y-78740000D03*
X28280000Y-76200000D03*
X28280000Y-73660000D03*
X28280000Y-71120000D03*
X28280000Y-68580000D03*
%TD*%
D12*
%TO.C,J7*%
X30320000Y-57490000D03*
D11*
X30320000Y-60030000D03*
X32860000Y-57490000D03*
X32860000Y-60030000D03*
X35400000Y-57490000D03*
X35400000Y-60030000D03*
X37940000Y-57490000D03*
X37940000Y-60030000D03*
X40480000Y-57490000D03*
X40480000Y-60030000D03*
X43020000Y-57490000D03*
X43020000Y-60030000D03*
X45560000Y-57490000D03*
X45560000Y-60030000D03*
X48100000Y-57490000D03*
X48100000Y-60030000D03*
X50640000Y-57490000D03*
X50640000Y-60030000D03*
X53180000Y-57490000D03*
X53180000Y-60030000D03*
X55720000Y-57490000D03*
X55720000Y-60030000D03*
X58260000Y-57490000D03*
X58260000Y-60030000D03*
X60800000Y-57490000D03*
X60800000Y-60030000D03*
X63340000Y-57490000D03*
X63340000Y-60030000D03*
X65880000Y-57490000D03*
X65880000Y-60030000D03*
X68420000Y-57490000D03*
X68420000Y-60030000D03*
X70960000Y-57490000D03*
X70960000Y-60030000D03*
X73500000Y-57490000D03*
X73500000Y-60030000D03*
X76040000Y-57490000D03*
X76040000Y-60030000D03*
X78580000Y-57490000D03*
X78580000Y-60030000D03*
%TD*%
D10*
%TO.C,J20*%
X76450000Y-105850000D03*
X73950000Y-105850000D03*
X71450000Y-105850000D03*
G36*
G01*
X68100000Y-106575000D02*
X68100000Y-105125000D01*
G75*
G02*
X68350000Y-104875000I250000J0D01*
G01*
X69550000Y-104875000D01*
G75*
G02*
X69800000Y-105125000I0J-250000D01*
G01*
X69800000Y-106575000D01*
G75*
G02*
X69550000Y-106825000I-250000J0D01*
G01*
X68350000Y-106825000D01*
G75*
G02*
X68100000Y-106575000I0J250000D01*
G01*
G37*
%TD*%
%TO.C,J5*%
G36*
G01*
X88100000Y-106535000D02*
X88100000Y-105085000D01*
G75*
G02*
X88350000Y-104835000I250000J0D01*
G01*
X89550000Y-104835000D01*
G75*
G02*
X89800000Y-105085000I0J-250000D01*
G01*
X89800000Y-106535000D01*
G75*
G02*
X89550000Y-106785000I-250000J0D01*
G01*
X88350000Y-106785000D01*
G75*
G02*
X88100000Y-106535000I0J250000D01*
G01*
G37*
X91450000Y-105810000D03*
X93950000Y-105810000D03*
X96450000Y-105810000D03*
%TD*%
D13*
%TO.C,SW1*%
X71570000Y-72870000D03*
X67070000Y-72870000D03*
X71570000Y-66370000D03*
X67070000Y-66370000D03*
%TD*%
M02*
