M48
; DRILL file {KiCad (5.1.9)-1} date 03/21/21 01:21:00
; FORMAT={-:-/ absolute / inch / decimal}
; #@! TF.CreationDate,2021-03-21T01:21:00-03:00
; #@! TF.GenerationSoftware,Kicad,Pcbnew,(5.1.9)-1
; #@! TF.FileFunction,Plated,1,2,PTH
FMAT,2
INCH
T1C0.0157
T2C0.0374
T3C0.0394
%
G90
G05
T1
X1.0771Y-3.737
X1.1896Y-4.244
X1.4776Y-3.9616
X1.7036Y-2.9095
X1.7832Y-2.6903
X1.8804Y-2.7891
X1.9267Y-2.5609
X1.9447Y-3.0933
X2.1915Y-4.0214
X2.2668Y-3.6674
X2.3542Y-3.604
X2.3709Y-2.6221
X2.49Y-2.8407
X2.6847Y-3.2229
X2.6863Y-3.3492
X2.7107Y-3.3815
X2.7388Y-3.411
X2.743Y-3.2443
X2.7508Y-2.9765
X2.7536Y-2.6033
X2.7732Y-3.433
X2.776Y-3.1037
X2.8185Y-2.9944
X2.8398Y-3.3938
X2.9061Y-3.5672
X2.9383Y-3.1036
X2.9455Y-3.5592
X2.9722Y-3.3493
X2.9912Y-3.1988
X3.0061Y-3.5407
X3.0805Y-3.4512
X3.1063Y-3.3034
X3.11Y-3.2146
X3.1375Y-3.1601
X3.1451Y-3.3837
X3.3223Y-3.0165
X3.3577Y-3.0491
X3.4575Y-2.9317
X3.6449Y-2.8021
X3.6483Y-2.9438
X3.7736Y-3.5319
X4.0461Y-3.445
T2
X1.5794Y-3.989
X1.6778Y-3.989
X1.7762Y-3.989
X2.2947Y-3.99
X2.3931Y-3.99
X2.4916Y-3.99
X2.59Y-3.99
X3.1047Y-3.99
X3.2031Y-3.99
X3.21Y-2.5
X3.3016Y-3.99
X3.3084Y-2.5
X3.4Y-3.99
X3.4069Y-2.5
X3.5053Y-2.5
X3.8147Y-3.99
X3.9131Y-3.99
X4.0116Y-3.99
X4.11Y-3.99
T3
X1.0283Y-2.6307
X1.0283Y-2.7307
X1.0283Y-2.8307
X1.0283Y-2.9307
X1.0283Y-3.0307
X1.0283Y-3.1307
X1.05Y-2.25
X1.05Y-2.35
X1.1335Y-2.6327
X1.1335Y-2.7327
X1.1335Y-2.8327
X1.1335Y-2.9327
X1.1335Y-3.0327
X1.1335Y-3.1327
X1.15Y-2.25
X1.15Y-2.35
X1.239Y-2.6354
X1.239Y-2.7354
X1.239Y-2.8354
X1.239Y-2.9354
X1.239Y-3.0354
X1.239Y-3.1354
X1.25Y-2.25
X1.25Y-2.35
X1.2996Y-3.3787
X1.2996Y-3.4772
X1.35Y-2.25
X1.35Y-2.35
X1.45Y-2.25
X1.45Y-2.35
X1.55Y-2.25
X1.55Y-2.35
X1.65Y-2.25
X1.65Y-2.35
X1.75Y-2.25
X1.75Y-2.35
X1.85Y-2.25
X1.85Y-2.35
X1.95Y-2.25
X1.95Y-2.35
X2.05Y-2.25
X2.05Y-2.35
X2.15Y-2.25
X2.15Y-2.35
X2.25Y-2.25
X2.25Y-2.35
X2.35Y-2.25
X2.35Y-2.35
X2.45Y-2.25
X2.45Y-2.35
X2.55Y-2.25
X2.55Y-2.35
X2.65Y-2.25
X2.65Y-2.35
X2.75Y-2.25
X2.75Y-2.35
X2.85Y-2.25
X2.85Y-2.35
X2.95Y-2.25
X2.95Y-2.35
X3.78Y-2.43
X3.78Y-2.53
X3.88Y-2.43
X3.88Y-2.53
X3.98Y-2.43
X3.98Y-2.53
X4.08Y-2.43
X4.08Y-2.53
X4.18Y-2.43
X4.18Y-2.53
T0
M30
