%TF.GenerationSoftware,KiCad,Pcbnew,(5.1.9)-1*%
%TF.CreationDate,2021-03-21T01:20:58-03:00*%
%TF.ProjectId,harpiafc,68617270-6961-4666-932e-6b696361645f,rev?*%
%TF.SameCoordinates,Original*%
%TF.FileFunction,Legend,Top*%
%TF.FilePolarity,Positive*%
%FSLAX46Y46*%
G04 Gerber Fmt 4.6, Leading zero omitted, Abs format (unit mm)*
G04 Created by KiCad (PCBNEW (5.1.9)-1) date 2021-03-21 01:20:58*
%MOMM*%
%LPD*%
G01*
G04 APERTURE LIST*
%ADD10C,0.250000*%
%ADD11C,0.150000*%
%ADD12C,0.300000*%
%ADD13C,0.120000*%
%ADD14C,0.010000*%
%ADD15C,0.200000*%
%ADD16C,0.127000*%
%ADD17C,0.152400*%
%ADD18C,0.015000*%
G04 APERTURE END LIST*
D10*
X71280095Y-98496380D02*
X71280095Y-97496380D01*
X71708666Y-98496380D02*
X71708666Y-97972571D01*
X71661047Y-97877333D01*
X71565809Y-97829714D01*
X71422952Y-97829714D01*
X71327714Y-97877333D01*
X71280095Y-97924952D01*
X72042000Y-97829714D02*
X72422952Y-97829714D01*
X72184857Y-97496380D02*
X72184857Y-98353523D01*
X72232476Y-98448761D01*
X72327714Y-98496380D01*
X72422952Y-98496380D01*
X72613428Y-97829714D02*
X72994380Y-97829714D01*
X72756285Y-97496380D02*
X72756285Y-98353523D01*
X72803904Y-98448761D01*
X72899142Y-98496380D01*
X72994380Y-98496380D01*
X73327714Y-97829714D02*
X73327714Y-98829714D01*
X73327714Y-97877333D02*
X73422952Y-97829714D01*
X73613428Y-97829714D01*
X73708666Y-97877333D01*
X73756285Y-97924952D01*
X73803904Y-98020190D01*
X73803904Y-98305904D01*
X73756285Y-98401142D01*
X73708666Y-98448761D01*
X73613428Y-98496380D01*
X73422952Y-98496380D01*
X73327714Y-98448761D01*
X74184857Y-98448761D02*
X74280095Y-98496380D01*
X74470571Y-98496380D01*
X74565809Y-98448761D01*
X74613428Y-98353523D01*
X74613428Y-98305904D01*
X74565809Y-98210666D01*
X74470571Y-98163047D01*
X74327714Y-98163047D01*
X74232476Y-98115428D01*
X74184857Y-98020190D01*
X74184857Y-97972571D01*
X74232476Y-97877333D01*
X74327714Y-97829714D01*
X74470571Y-97829714D01*
X74565809Y-97877333D01*
X75042000Y-98401142D02*
X75089619Y-98448761D01*
X75042000Y-98496380D01*
X74994380Y-98448761D01*
X75042000Y-98401142D01*
X75042000Y-98496380D01*
X75042000Y-97877333D02*
X75089619Y-97924952D01*
X75042000Y-97972571D01*
X74994380Y-97924952D01*
X75042000Y-97877333D01*
X75042000Y-97972571D01*
X76232476Y-97448761D02*
X75375333Y-98734476D01*
X77280095Y-97448761D02*
X76422952Y-98734476D01*
X78042000Y-97829714D02*
X78042000Y-98639238D01*
X77994380Y-98734476D01*
X77946761Y-98782095D01*
X77851523Y-98829714D01*
X77708666Y-98829714D01*
X77613428Y-98782095D01*
X78042000Y-98448761D02*
X77946761Y-98496380D01*
X77756285Y-98496380D01*
X77661047Y-98448761D01*
X77613428Y-98401142D01*
X77565809Y-98305904D01*
X77565809Y-98020190D01*
X77613428Y-97924952D01*
X77661047Y-97877333D01*
X77756285Y-97829714D01*
X77946761Y-97829714D01*
X78042000Y-97877333D01*
X78518190Y-98496380D02*
X78518190Y-97829714D01*
X78518190Y-97496380D02*
X78470571Y-97544000D01*
X78518190Y-97591619D01*
X78565809Y-97544000D01*
X78518190Y-97496380D01*
X78518190Y-97591619D01*
X78851523Y-97829714D02*
X79232476Y-97829714D01*
X78994380Y-97496380D02*
X78994380Y-98353523D01*
X79042000Y-98448761D01*
X79137238Y-98496380D01*
X79232476Y-98496380D01*
X79565809Y-98496380D02*
X79565809Y-97496380D01*
X79994380Y-98496380D02*
X79994380Y-97972571D01*
X79946761Y-97877333D01*
X79851523Y-97829714D01*
X79708666Y-97829714D01*
X79613428Y-97877333D01*
X79565809Y-97924952D01*
X80899142Y-97829714D02*
X80899142Y-98496380D01*
X80470571Y-97829714D02*
X80470571Y-98353523D01*
X80518190Y-98448761D01*
X80613428Y-98496380D01*
X80756285Y-98496380D01*
X80851523Y-98448761D01*
X80899142Y-98401142D01*
X81375333Y-98496380D02*
X81375333Y-97496380D01*
X81375333Y-97877333D02*
X81470571Y-97829714D01*
X81661047Y-97829714D01*
X81756285Y-97877333D01*
X81803904Y-97924952D01*
X81851523Y-98020190D01*
X81851523Y-98305904D01*
X81803904Y-98401142D01*
X81756285Y-98448761D01*
X81661047Y-98496380D01*
X81470571Y-98496380D01*
X81375333Y-98448761D01*
X82280095Y-98401142D02*
X82327714Y-98448761D01*
X82280095Y-98496380D01*
X82232476Y-98448761D01*
X82280095Y-98401142D01*
X82280095Y-98496380D01*
X83184857Y-98448761D02*
X83089619Y-98496380D01*
X82899142Y-98496380D01*
X82803904Y-98448761D01*
X82756285Y-98401142D01*
X82708666Y-98305904D01*
X82708666Y-98020190D01*
X82756285Y-97924952D01*
X82803904Y-97877333D01*
X82899142Y-97829714D01*
X83089619Y-97829714D01*
X83184857Y-97877333D01*
X83756285Y-98496380D02*
X83661047Y-98448761D01*
X83613428Y-98401142D01*
X83565809Y-98305904D01*
X83565809Y-98020190D01*
X83613428Y-97924952D01*
X83661047Y-97877333D01*
X83756285Y-97829714D01*
X83899142Y-97829714D01*
X83994380Y-97877333D01*
X84042000Y-97924952D01*
X84089619Y-98020190D01*
X84089619Y-98305904D01*
X84042000Y-98401142D01*
X83994380Y-98448761D01*
X83899142Y-98496380D01*
X83756285Y-98496380D01*
X84518190Y-98496380D02*
X84518190Y-97829714D01*
X84518190Y-97924952D02*
X84565809Y-97877333D01*
X84661047Y-97829714D01*
X84803904Y-97829714D01*
X84899142Y-97877333D01*
X84946761Y-97972571D01*
X84946761Y-98496380D01*
X84946761Y-97972571D02*
X84994380Y-97877333D01*
X85089619Y-97829714D01*
X85232476Y-97829714D01*
X85327714Y-97877333D01*
X85375333Y-97972571D01*
X85375333Y-98496380D01*
X86565809Y-97448761D02*
X85708666Y-98734476D01*
X87327714Y-97829714D02*
X87327714Y-98639238D01*
X87280095Y-98734476D01*
X87232476Y-98782095D01*
X87137238Y-98829714D01*
X86994380Y-98829714D01*
X86899142Y-98782095D01*
X87327714Y-98448761D02*
X87232476Y-98496380D01*
X87042000Y-98496380D01*
X86946761Y-98448761D01*
X86899142Y-98401142D01*
X86851523Y-98305904D01*
X86851523Y-98020190D01*
X86899142Y-97924952D01*
X86946761Y-97877333D01*
X87042000Y-97829714D01*
X87232476Y-97829714D01*
X87327714Y-97877333D01*
X88232476Y-98496380D02*
X88232476Y-97972571D01*
X88184857Y-97877333D01*
X88089619Y-97829714D01*
X87899142Y-97829714D01*
X87803904Y-97877333D01*
X88232476Y-98448761D02*
X88137238Y-98496380D01*
X87899142Y-98496380D01*
X87803904Y-98448761D01*
X87756285Y-98353523D01*
X87756285Y-98258285D01*
X87803904Y-98163047D01*
X87899142Y-98115428D01*
X88137238Y-98115428D01*
X88232476Y-98067809D01*
X88708666Y-98496380D02*
X88708666Y-97496380D01*
X88708666Y-97877333D02*
X88803904Y-97829714D01*
X88994380Y-97829714D01*
X89089619Y-97877333D01*
X89137238Y-97924952D01*
X89184857Y-98020190D01*
X89184857Y-98305904D01*
X89137238Y-98401142D01*
X89089619Y-98448761D01*
X88994380Y-98496380D01*
X88803904Y-98496380D01*
X88708666Y-98448761D01*
X89565809Y-98448761D02*
X89661047Y-98496380D01*
X89851523Y-98496380D01*
X89946761Y-98448761D01*
X89994380Y-98353523D01*
X89994380Y-98305904D01*
X89946761Y-98210666D01*
X89851523Y-98163047D01*
X89708666Y-98163047D01*
X89613428Y-98115428D01*
X89565809Y-98020190D01*
X89565809Y-97972571D01*
X89613428Y-97877333D01*
X89708666Y-97829714D01*
X89851523Y-97829714D01*
X89946761Y-97877333D01*
X90470571Y-98496380D02*
X90661047Y-98496380D01*
X90756285Y-98448761D01*
X90803904Y-98401142D01*
X90899142Y-98258285D01*
X90946761Y-98067809D01*
X90946761Y-97686857D01*
X90899142Y-97591619D01*
X90851523Y-97544000D01*
X90756285Y-97496380D01*
X90565809Y-97496380D01*
X90470571Y-97544000D01*
X90422952Y-97591619D01*
X90375333Y-97686857D01*
X90375333Y-97924952D01*
X90422952Y-98020190D01*
X90470571Y-98067809D01*
X90565809Y-98115428D01*
X90756285Y-98115428D01*
X90851523Y-98067809D01*
X90899142Y-98020190D01*
X90946761Y-97924952D01*
X91899142Y-98496380D02*
X91327714Y-98496380D01*
X91613428Y-98496380D02*
X91613428Y-97496380D01*
X91518190Y-97639238D01*
X91422952Y-97734476D01*
X91327714Y-97782095D01*
X92851523Y-98496380D02*
X92280095Y-98496380D01*
X92565809Y-98496380D02*
X92565809Y-97496380D01*
X92470571Y-97639238D01*
X92375333Y-97734476D01*
X92280095Y-97782095D01*
X32878476Y-62777714D02*
X33592761Y-62777714D01*
X33164190Y-62349142D02*
X32878476Y-63634857D01*
X33497523Y-63206285D02*
X32783238Y-63206285D01*
X33211809Y-63634857D02*
X33497523Y-62349142D01*
X34449904Y-62492000D02*
X34354666Y-62444380D01*
X34211809Y-62444380D01*
X34068952Y-62492000D01*
X33973714Y-62587238D01*
X33926095Y-62682476D01*
X33878476Y-62872952D01*
X33878476Y-63015809D01*
X33926095Y-63206285D01*
X33973714Y-63301523D01*
X34068952Y-63396761D01*
X34211809Y-63444380D01*
X34307047Y-63444380D01*
X34449904Y-63396761D01*
X34497523Y-63349142D01*
X34497523Y-63015809D01*
X34307047Y-63015809D01*
X34878476Y-63158666D02*
X35354666Y-63158666D01*
X34783238Y-63444380D02*
X35116571Y-62444380D01*
X35449904Y-63444380D01*
X35783238Y-63444380D02*
X35783238Y-62444380D01*
X36116571Y-63158666D01*
X36449904Y-62444380D01*
X36449904Y-63444380D01*
X37259428Y-62920571D02*
X37402285Y-62968190D01*
X37449904Y-63015809D01*
X37497523Y-63111047D01*
X37497523Y-63253904D01*
X37449904Y-63349142D01*
X37402285Y-63396761D01*
X37307047Y-63444380D01*
X36926095Y-63444380D01*
X36926095Y-62444380D01*
X37259428Y-62444380D01*
X37354666Y-62492000D01*
X37402285Y-62539619D01*
X37449904Y-62634857D01*
X37449904Y-62730095D01*
X37402285Y-62825333D01*
X37354666Y-62872952D01*
X37259428Y-62920571D01*
X36926095Y-62920571D01*
X37926095Y-63444380D02*
X37926095Y-62444380D01*
X38354666Y-63158666D02*
X38830857Y-63158666D01*
X38259428Y-63444380D02*
X38592761Y-62444380D01*
X38926095Y-63444380D01*
X39830857Y-63444380D02*
X39497523Y-62968190D01*
X39259428Y-63444380D02*
X39259428Y-62444380D01*
X39640380Y-62444380D01*
X39735619Y-62492000D01*
X39783238Y-62539619D01*
X39830857Y-62634857D01*
X39830857Y-62777714D01*
X39783238Y-62872952D01*
X39735619Y-62920571D01*
X39640380Y-62968190D01*
X39259428Y-62968190D01*
X40830857Y-63444380D02*
X40497523Y-62968190D01*
X40259428Y-63444380D02*
X40259428Y-62444380D01*
X40640380Y-62444380D01*
X40735619Y-62492000D01*
X40783238Y-62539619D01*
X40830857Y-62634857D01*
X40830857Y-62777714D01*
X40783238Y-62872952D01*
X40735619Y-62920571D01*
X40640380Y-62968190D01*
X40259428Y-62968190D01*
X41211809Y-63158666D02*
X41688000Y-63158666D01*
X41116571Y-63444380D02*
X41449904Y-62444380D01*
X41783238Y-63444380D01*
X42878476Y-63444380D02*
X42878476Y-62444380D01*
X43211809Y-63158666D01*
X43545142Y-62444380D01*
X43545142Y-63444380D01*
X43973714Y-63158666D02*
X44449904Y-63158666D01*
X43878476Y-63444380D02*
X44211809Y-62444380D01*
X44545142Y-63444380D01*
X44878476Y-63444380D02*
X44878476Y-62444380D01*
X45116571Y-62444380D01*
X45259428Y-62492000D01*
X45354666Y-62587238D01*
X45402285Y-62682476D01*
X45449904Y-62872952D01*
X45449904Y-63015809D01*
X45402285Y-63206285D01*
X45354666Y-63301523D01*
X45259428Y-63396761D01*
X45116571Y-63444380D01*
X44878476Y-63444380D01*
X45878476Y-62920571D02*
X46211809Y-62920571D01*
X46354666Y-63444380D02*
X45878476Y-63444380D01*
X45878476Y-62444380D01*
X46354666Y-62444380D01*
X47545142Y-63444380D02*
X47545142Y-62444380D01*
X48021333Y-63444380D02*
X48021333Y-62444380D01*
X48592761Y-63444380D01*
X48592761Y-62444380D01*
X50164190Y-62920571D02*
X50307047Y-62968190D01*
X50354666Y-63015809D01*
X50402285Y-63111047D01*
X50402285Y-63253904D01*
X50354666Y-63349142D01*
X50307047Y-63396761D01*
X50211809Y-63444380D01*
X49830857Y-63444380D01*
X49830857Y-62444380D01*
X50164190Y-62444380D01*
X50259428Y-62492000D01*
X50307047Y-62539619D01*
X50354666Y-62634857D01*
X50354666Y-62730095D01*
X50307047Y-62825333D01*
X50259428Y-62872952D01*
X50164190Y-62920571D01*
X49830857Y-62920571D01*
X51402285Y-63444380D02*
X51068952Y-62968190D01*
X50830857Y-63444380D02*
X50830857Y-62444380D01*
X51211809Y-62444380D01*
X51307047Y-62492000D01*
X51354666Y-62539619D01*
X51402285Y-62634857D01*
X51402285Y-62777714D01*
X51354666Y-62872952D01*
X51307047Y-62920571D01*
X51211809Y-62968190D01*
X50830857Y-62968190D01*
X51783238Y-63158666D02*
X52259428Y-63158666D01*
X51688000Y-63444380D02*
X52021333Y-62444380D01*
X52354666Y-63444380D01*
X52592761Y-62444380D02*
X53259428Y-62444380D01*
X52592761Y-63444380D01*
X53259428Y-63444380D01*
X53640380Y-63444380D02*
X53640380Y-62444380D01*
X54592761Y-63444380D02*
X54116571Y-63444380D01*
X54116571Y-62444380D01*
X96647523Y-109180380D02*
X96980857Y-110180380D01*
X97314190Y-109180380D01*
X97838000Y-109180380D02*
X98028476Y-109180380D01*
X98123714Y-109228000D01*
X98218952Y-109323238D01*
X98266571Y-109513714D01*
X98266571Y-109847047D01*
X98218952Y-110037523D01*
X98123714Y-110132761D01*
X98028476Y-110180380D01*
X97838000Y-110180380D01*
X97742761Y-110132761D01*
X97647523Y-110037523D01*
X97599904Y-109847047D01*
X97599904Y-109513714D01*
X97647523Y-109323238D01*
X97742761Y-109228000D01*
X97838000Y-109180380D01*
X99171333Y-110180380D02*
X98695142Y-110180380D01*
X98695142Y-109180380D01*
X99361809Y-109180380D02*
X99933238Y-109180380D01*
X99647523Y-110180380D02*
X99647523Y-109180380D01*
X100980857Y-109132761D02*
X100123714Y-110418476D01*
X101885619Y-110085142D02*
X101838000Y-110132761D01*
X101695142Y-110180380D01*
X101599904Y-110180380D01*
X101457047Y-110132761D01*
X101361809Y-110037523D01*
X101314190Y-109942285D01*
X101266571Y-109751809D01*
X101266571Y-109608952D01*
X101314190Y-109418476D01*
X101361809Y-109323238D01*
X101457047Y-109228000D01*
X101599904Y-109180380D01*
X101695142Y-109180380D01*
X101838000Y-109228000D01*
X101885619Y-109275619D01*
X102314190Y-109180380D02*
X102314190Y-109989904D01*
X102361809Y-110085142D01*
X102409428Y-110132761D01*
X102504666Y-110180380D01*
X102695142Y-110180380D01*
X102790380Y-110132761D01*
X102838000Y-110085142D01*
X102885619Y-109989904D01*
X102885619Y-109180380D01*
X103933238Y-110180380D02*
X103599904Y-109704190D01*
X103361809Y-110180380D02*
X103361809Y-109180380D01*
X103742761Y-109180380D01*
X103838000Y-109228000D01*
X103885619Y-109275619D01*
X103933238Y-109370857D01*
X103933238Y-109513714D01*
X103885619Y-109608952D01*
X103838000Y-109656571D01*
X103742761Y-109704190D01*
X103361809Y-109704190D01*
X104933238Y-110180380D02*
X104599904Y-109704190D01*
X104361809Y-110180380D02*
X104361809Y-109180380D01*
X104742761Y-109180380D01*
X104838000Y-109228000D01*
X104885619Y-109275619D01*
X104933238Y-109370857D01*
X104933238Y-109513714D01*
X104885619Y-109608952D01*
X104838000Y-109656571D01*
X104742761Y-109704190D01*
X104361809Y-109704190D01*
D11*
X79851619Y-110180380D02*
X79851619Y-109180380D01*
X80184952Y-109894666D01*
X80518285Y-109180380D01*
X80518285Y-110180380D01*
X81565904Y-110085142D02*
X81518285Y-110132761D01*
X81375428Y-110180380D01*
X81280190Y-110180380D01*
X81137333Y-110132761D01*
X81042095Y-110037523D01*
X80994476Y-109942285D01*
X80946857Y-109751809D01*
X80946857Y-109608952D01*
X80994476Y-109418476D01*
X81042095Y-109323238D01*
X81137333Y-109228000D01*
X81280190Y-109180380D01*
X81375428Y-109180380D01*
X81518285Y-109228000D01*
X81565904Y-109275619D01*
X81994476Y-109180380D02*
X81994476Y-109989904D01*
X82042095Y-110085142D01*
X82089714Y-110132761D01*
X82184952Y-110180380D01*
X82375428Y-110180380D01*
X82470666Y-110132761D01*
X82518285Y-110085142D01*
X82565904Y-109989904D01*
X82565904Y-109180380D01*
X82804000Y-110275619D02*
X83565904Y-110275619D01*
X83804000Y-110180380D02*
X83804000Y-109180380D01*
X84232571Y-109275619D02*
X84280190Y-109228000D01*
X84375428Y-109180380D01*
X84613523Y-109180380D01*
X84708761Y-109228000D01*
X84756380Y-109275619D01*
X84804000Y-109370857D01*
X84804000Y-109466095D01*
X84756380Y-109608952D01*
X84184952Y-110180380D01*
X84804000Y-110180380D01*
X85804000Y-110085142D02*
X85756380Y-110132761D01*
X85613523Y-110180380D01*
X85518285Y-110180380D01*
X85375428Y-110132761D01*
X85280190Y-110037523D01*
X85232571Y-109942285D01*
X85184952Y-109751809D01*
X85184952Y-109608952D01*
X85232571Y-109418476D01*
X85280190Y-109323238D01*
X85375428Y-109228000D01*
X85518285Y-109180380D01*
X85613523Y-109180380D01*
X85756380Y-109228000D01*
X85804000Y-109275619D01*
X61515714Y-109228000D02*
X61420476Y-109180380D01*
X61277619Y-109180380D01*
X61134761Y-109228000D01*
X61039523Y-109323238D01*
X60991904Y-109418476D01*
X60944285Y-109608952D01*
X60944285Y-109751809D01*
X60991904Y-109942285D01*
X61039523Y-110037523D01*
X61134761Y-110132761D01*
X61277619Y-110180380D01*
X61372857Y-110180380D01*
X61515714Y-110132761D01*
X61563333Y-110085142D01*
X61563333Y-109751809D01*
X61372857Y-109751809D01*
X61991904Y-110180380D02*
X61991904Y-109180380D01*
X62372857Y-109180380D01*
X62468095Y-109228000D01*
X62515714Y-109275619D01*
X62563333Y-109370857D01*
X62563333Y-109513714D01*
X62515714Y-109608952D01*
X62468095Y-109656571D01*
X62372857Y-109704190D01*
X61991904Y-109704190D01*
X62944285Y-110132761D02*
X63087142Y-110180380D01*
X63325238Y-110180380D01*
X63420476Y-110132761D01*
X63468095Y-110085142D01*
X63515714Y-109989904D01*
X63515714Y-109894666D01*
X63468095Y-109799428D01*
X63420476Y-109751809D01*
X63325238Y-109704190D01*
X63134761Y-109656571D01*
X63039523Y-109608952D01*
X62991904Y-109561333D01*
X62944285Y-109466095D01*
X62944285Y-109370857D01*
X62991904Y-109275619D01*
X63039523Y-109228000D01*
X63134761Y-109180380D01*
X63372857Y-109180380D01*
X63515714Y-109228000D01*
X39386285Y-110180380D02*
X39052952Y-109704190D01*
X38814857Y-110180380D02*
X38814857Y-109180380D01*
X39195809Y-109180380D01*
X39291047Y-109228000D01*
X39338666Y-109275619D01*
X39386285Y-109370857D01*
X39386285Y-109513714D01*
X39338666Y-109608952D01*
X39291047Y-109656571D01*
X39195809Y-109704190D01*
X38814857Y-109704190D01*
X40386285Y-110085142D02*
X40338666Y-110132761D01*
X40195809Y-110180380D01*
X40100571Y-110180380D01*
X39957714Y-110132761D01*
X39862476Y-110037523D01*
X39814857Y-109942285D01*
X39767238Y-109751809D01*
X39767238Y-109608952D01*
X39814857Y-109418476D01*
X39862476Y-109323238D01*
X39957714Y-109228000D01*
X40100571Y-109180380D01*
X40195809Y-109180380D01*
X40338666Y-109228000D01*
X40386285Y-109275619D01*
X41576761Y-110180380D02*
X41576761Y-109180380D01*
X41957714Y-109180380D01*
X42052952Y-109228000D01*
X42100571Y-109275619D01*
X42148190Y-109370857D01*
X42148190Y-109513714D01*
X42100571Y-109608952D01*
X42052952Y-109656571D01*
X41957714Y-109704190D01*
X41576761Y-109704190D01*
X42576761Y-110180380D02*
X42576761Y-109180380D01*
X42957714Y-109180380D01*
X43052952Y-109228000D01*
X43100571Y-109275619D01*
X43148190Y-109370857D01*
X43148190Y-109513714D01*
X43100571Y-109608952D01*
X43052952Y-109656571D01*
X42957714Y-109704190D01*
X42576761Y-109704190D01*
X43576761Y-110180380D02*
X43576761Y-109180380D01*
X43910095Y-109894666D01*
X44243428Y-109180380D01*
X44243428Y-110180380D01*
X45481523Y-110180380D02*
X45481523Y-109180380D01*
X45957714Y-110180380D02*
X45957714Y-109180380D01*
X46529142Y-110180380D01*
X46529142Y-109180380D01*
X23931619Y-85788666D02*
X24931619Y-85788666D01*
X24931619Y-86169619D01*
X24884000Y-86264857D01*
X24836380Y-86312476D01*
X24741142Y-86360095D01*
X24598285Y-86360095D01*
X24503047Y-86312476D01*
X24455428Y-86264857D01*
X24407809Y-86169619D01*
X24407809Y-85788666D01*
X24931619Y-86693428D02*
X23931619Y-86931523D01*
X24645904Y-87122000D01*
X23931619Y-87312476D01*
X24931619Y-87550571D01*
X23931619Y-88502952D02*
X24407809Y-88169619D01*
X23931619Y-87931523D02*
X24931619Y-87931523D01*
X24931619Y-88312476D01*
X24884000Y-88407714D01*
X24836380Y-88455333D01*
X24741142Y-88502952D01*
X24598285Y-88502952D01*
X24503047Y-88455333D01*
X24455428Y-88407714D01*
X24407809Y-88312476D01*
X24407809Y-87931523D01*
D12*
X88125714Y-54693428D02*
X88625714Y-55407714D01*
X88982857Y-54693428D02*
X88982857Y-56193428D01*
X88411428Y-56193428D01*
X88268571Y-56122000D01*
X88197142Y-56050571D01*
X88125714Y-55907714D01*
X88125714Y-55693428D01*
X88197142Y-55550571D01*
X88268571Y-55479142D01*
X88411428Y-55407714D01*
X88982857Y-55407714D01*
X87482857Y-54693428D02*
X87482857Y-56193428D01*
X86911428Y-56193428D01*
X86768571Y-56122000D01*
X86697142Y-56050571D01*
X86625714Y-55907714D01*
X86625714Y-55693428D01*
X86697142Y-55550571D01*
X86768571Y-55479142D01*
X86911428Y-55407714D01*
X87482857Y-55407714D01*
X85982857Y-54693428D02*
X85982857Y-56193428D01*
X85625714Y-54550571D02*
X84482857Y-54550571D01*
X84125714Y-54693428D02*
X84125714Y-56193428D01*
X83482857Y-56050571D02*
X83411428Y-56122000D01*
X83268571Y-56193428D01*
X82911428Y-56193428D01*
X82768571Y-56122000D01*
X82697142Y-56050571D01*
X82625714Y-55907714D01*
X82625714Y-55764857D01*
X82697142Y-55550571D01*
X83554285Y-54693428D01*
X82625714Y-54693428D01*
X81125714Y-54836285D02*
X81197142Y-54764857D01*
X81411428Y-54693428D01*
X81554285Y-54693428D01*
X81768571Y-54764857D01*
X81911428Y-54907714D01*
X81982857Y-55050571D01*
X82054285Y-55336285D01*
X82054285Y-55550571D01*
X81982857Y-55836285D01*
X81911428Y-55979142D01*
X81768571Y-56122000D01*
X81554285Y-56193428D01*
X81411428Y-56193428D01*
X81197142Y-56122000D01*
X81125714Y-56050571D01*
X99310285Y-59027142D02*
X99524571Y-59098571D01*
X99881714Y-59098571D01*
X100024571Y-59027142D01*
X100096000Y-58955714D01*
X100167428Y-58812857D01*
X100167428Y-58670000D01*
X100096000Y-58527142D01*
X100024571Y-58455714D01*
X99881714Y-58384285D01*
X99596000Y-58312857D01*
X99453142Y-58241428D01*
X99381714Y-58170000D01*
X99310285Y-58027142D01*
X99310285Y-57884285D01*
X99381714Y-57741428D01*
X99453142Y-57670000D01*
X99596000Y-57598571D01*
X99953142Y-57598571D01*
X100167428Y-57670000D01*
X100667428Y-57598571D02*
X101024571Y-59098571D01*
X101310285Y-58027142D01*
X101596000Y-59098571D01*
X101953142Y-57598571D01*
X102524571Y-59098571D02*
X102524571Y-57598571D01*
X102881714Y-57598571D01*
X103096000Y-57670000D01*
X103238857Y-57812857D01*
X103310285Y-57955714D01*
X103381714Y-58241428D01*
X103381714Y-58455714D01*
X103310285Y-58741428D01*
X103238857Y-58884285D01*
X103096000Y-59027142D01*
X102881714Y-59098571D01*
X102524571Y-59098571D01*
D11*
X106688000Y-96551619D02*
X106640380Y-96646857D01*
X106640380Y-96789714D01*
X106688000Y-96932571D01*
X106783238Y-97027809D01*
X106878476Y-97075428D01*
X107068952Y-97123047D01*
X107211809Y-97123047D01*
X107402285Y-97075428D01*
X107497523Y-97027809D01*
X107592761Y-96932571D01*
X107640380Y-96789714D01*
X107640380Y-96694476D01*
X107592761Y-96551619D01*
X107545142Y-96504000D01*
X107211809Y-96504000D01*
X107211809Y-96694476D01*
X107640380Y-95646857D02*
X107116571Y-95646857D01*
X107021333Y-95694476D01*
X106973714Y-95789714D01*
X106973714Y-95980190D01*
X107021333Y-96075428D01*
X107592761Y-95646857D02*
X107640380Y-95742095D01*
X107640380Y-95980190D01*
X107592761Y-96075428D01*
X107497523Y-96123047D01*
X107402285Y-96123047D01*
X107307047Y-96075428D01*
X107259428Y-95980190D01*
X107259428Y-95742095D01*
X107211809Y-95646857D01*
X107640380Y-95170666D02*
X106640380Y-95170666D01*
X107021333Y-95170666D02*
X106973714Y-95075428D01*
X106973714Y-94884952D01*
X107021333Y-94789714D01*
X107068952Y-94742095D01*
X107164190Y-94694476D01*
X107449904Y-94694476D01*
X107545142Y-94742095D01*
X107592761Y-94789714D01*
X107640380Y-94884952D01*
X107640380Y-95075428D01*
X107592761Y-95170666D01*
X107592761Y-94313523D02*
X107640380Y-94218285D01*
X107640380Y-94027809D01*
X107592761Y-93932571D01*
X107497523Y-93884952D01*
X107449904Y-93884952D01*
X107354666Y-93932571D01*
X107307047Y-94027809D01*
X107307047Y-94170666D01*
X107259428Y-94265904D01*
X107164190Y-94313523D01*
X107116571Y-94313523D01*
X107021333Y-94265904D01*
X106973714Y-94170666D01*
X106973714Y-94027809D01*
X107021333Y-93932571D01*
D13*
%TO.C,J9*%
X104094000Y-99246000D02*
X104394000Y-99846000D01*
X104694000Y-99246000D02*
X104094000Y-99246000D01*
X104394000Y-99846000D02*
X104694000Y-99246000D01*
X96574000Y-102936000D02*
X96894000Y-102936000D01*
X96574000Y-106356000D02*
X96574000Y-102936000D01*
X96894000Y-106436000D02*
X96574000Y-106356000D01*
X97214000Y-106356000D02*
X96894000Y-106436000D01*
X97214000Y-102936000D02*
X97214000Y-106356000D01*
X96894000Y-102936000D02*
X97214000Y-102936000D01*
X98224000Y-101936000D02*
X98064000Y-101936000D01*
X99074000Y-102936000D02*
X99394000Y-102936000D01*
X99074000Y-106356000D02*
X99074000Y-102936000D01*
X99394000Y-106436000D02*
X99074000Y-106356000D01*
X99714000Y-106356000D02*
X99394000Y-106436000D01*
X99714000Y-102936000D02*
X99714000Y-106356000D01*
X99394000Y-102936000D02*
X99714000Y-102936000D01*
X100724000Y-101936000D02*
X100564000Y-101936000D01*
X101574000Y-102936000D02*
X101894000Y-102936000D01*
X101574000Y-106356000D02*
X101574000Y-102936000D01*
X101894000Y-106436000D02*
X101574000Y-106356000D01*
X102214000Y-106356000D02*
X101894000Y-106436000D01*
X102214000Y-102936000D02*
X102214000Y-106356000D01*
X101894000Y-102936000D02*
X102214000Y-102936000D01*
X103224000Y-101936000D02*
X103064000Y-101936000D01*
X104074000Y-102936000D02*
X104394000Y-102936000D01*
X104074000Y-106356000D02*
X104074000Y-102936000D01*
X104394000Y-106436000D02*
X104074000Y-106356000D01*
X104714000Y-106356000D02*
X104394000Y-106436000D01*
X104714000Y-102936000D02*
X104714000Y-106356000D01*
X104394000Y-102936000D02*
X104714000Y-102936000D01*
X105784000Y-102936000D02*
X95504000Y-102936000D01*
X95504000Y-101936000D02*
X94284000Y-101936000D01*
X95504000Y-106936000D02*
X95504000Y-101936000D01*
X94284000Y-106936000D02*
X95504000Y-106936000D01*
X105784000Y-101936000D02*
X107004000Y-101936000D01*
X105784000Y-106936000D02*
X105784000Y-101936000D01*
X107004000Y-106936000D02*
X105784000Y-106936000D01*
X95504000Y-99736000D02*
X95504000Y-101936000D01*
X94284000Y-99736000D02*
X95504000Y-99736000D01*
X94284000Y-108156000D02*
X94284000Y-99736000D01*
X107004000Y-108156000D02*
X94284000Y-108156000D01*
X107004000Y-99736000D02*
X107004000Y-108156000D01*
X105784000Y-99736000D02*
X107004000Y-99736000D01*
X105784000Y-101936000D02*
X105784000Y-99736000D01*
%TO.C,J8*%
X65486000Y-99246000D02*
X65786000Y-99846000D01*
X66086000Y-99246000D02*
X65486000Y-99246000D01*
X65786000Y-99846000D02*
X66086000Y-99246000D01*
X57966000Y-102936000D02*
X58286000Y-102936000D01*
X57966000Y-106356000D02*
X57966000Y-102936000D01*
X58286000Y-106436000D02*
X57966000Y-106356000D01*
X58606000Y-106356000D02*
X58286000Y-106436000D01*
X58606000Y-102936000D02*
X58606000Y-106356000D01*
X58286000Y-102936000D02*
X58606000Y-102936000D01*
X59616000Y-101936000D02*
X59456000Y-101936000D01*
X60466000Y-102936000D02*
X60786000Y-102936000D01*
X60466000Y-106356000D02*
X60466000Y-102936000D01*
X60786000Y-106436000D02*
X60466000Y-106356000D01*
X61106000Y-106356000D02*
X60786000Y-106436000D01*
X61106000Y-102936000D02*
X61106000Y-106356000D01*
X60786000Y-102936000D02*
X61106000Y-102936000D01*
X62116000Y-101936000D02*
X61956000Y-101936000D01*
X62966000Y-102936000D02*
X63286000Y-102936000D01*
X62966000Y-106356000D02*
X62966000Y-102936000D01*
X63286000Y-106436000D02*
X62966000Y-106356000D01*
X63606000Y-106356000D02*
X63286000Y-106436000D01*
X63606000Y-102936000D02*
X63606000Y-106356000D01*
X63286000Y-102936000D02*
X63606000Y-102936000D01*
X64616000Y-101936000D02*
X64456000Y-101936000D01*
X65466000Y-102936000D02*
X65786000Y-102936000D01*
X65466000Y-106356000D02*
X65466000Y-102936000D01*
X65786000Y-106436000D02*
X65466000Y-106356000D01*
X66106000Y-106356000D02*
X65786000Y-106436000D01*
X66106000Y-102936000D02*
X66106000Y-106356000D01*
X65786000Y-102936000D02*
X66106000Y-102936000D01*
X67176000Y-102936000D02*
X56896000Y-102936000D01*
X56896000Y-101936000D02*
X55676000Y-101936000D01*
X56896000Y-106936000D02*
X56896000Y-101936000D01*
X55676000Y-106936000D02*
X56896000Y-106936000D01*
X67176000Y-101936000D02*
X68396000Y-101936000D01*
X67176000Y-106936000D02*
X67176000Y-101936000D01*
X68396000Y-106936000D02*
X67176000Y-106936000D01*
X56896000Y-99736000D02*
X56896000Y-101936000D01*
X55676000Y-99736000D02*
X56896000Y-99736000D01*
X55676000Y-108156000D02*
X55676000Y-99736000D01*
X68396000Y-108156000D02*
X55676000Y-108156000D01*
X68396000Y-99736000D02*
X68396000Y-108156000D01*
X67176000Y-99736000D02*
X68396000Y-99736000D01*
X67176000Y-101936000D02*
X67176000Y-99736000D01*
%TO.C,J10*%
X44816000Y-99220000D02*
X45116000Y-99820000D01*
X45416000Y-99220000D02*
X44816000Y-99220000D01*
X45116000Y-99820000D02*
X45416000Y-99220000D01*
X39796000Y-102910000D02*
X40116000Y-102910000D01*
X39796000Y-106330000D02*
X39796000Y-102910000D01*
X40116000Y-106410000D02*
X39796000Y-106330000D01*
X40436000Y-106330000D02*
X40116000Y-106410000D01*
X40436000Y-102910000D02*
X40436000Y-106330000D01*
X40116000Y-102910000D02*
X40436000Y-102910000D01*
X41446000Y-101910000D02*
X41286000Y-101910000D01*
X42296000Y-102910000D02*
X42616000Y-102910000D01*
X42296000Y-106330000D02*
X42296000Y-102910000D01*
X42616000Y-106410000D02*
X42296000Y-106330000D01*
X42936000Y-106330000D02*
X42616000Y-106410000D01*
X42936000Y-102910000D02*
X42936000Y-106330000D01*
X42616000Y-102910000D02*
X42936000Y-102910000D01*
X43946000Y-101910000D02*
X43786000Y-101910000D01*
X44796000Y-102910000D02*
X45116000Y-102910000D01*
X44796000Y-106330000D02*
X44796000Y-102910000D01*
X45116000Y-106410000D02*
X44796000Y-106330000D01*
X45436000Y-106330000D02*
X45116000Y-106410000D01*
X45436000Y-102910000D02*
X45436000Y-106330000D01*
X45116000Y-102910000D02*
X45436000Y-102910000D01*
X46506000Y-102910000D02*
X38726000Y-102910000D01*
X38726000Y-101910000D02*
X37506000Y-101910000D01*
X38726000Y-106910000D02*
X38726000Y-101910000D01*
X37506000Y-106910000D02*
X38726000Y-106910000D01*
X46506000Y-101910000D02*
X47726000Y-101910000D01*
X46506000Y-106910000D02*
X46506000Y-101910000D01*
X47726000Y-106910000D02*
X46506000Y-106910000D01*
X38726000Y-99710000D02*
X38726000Y-101910000D01*
X37506000Y-99710000D02*
X38726000Y-99710000D01*
X37506000Y-108130000D02*
X37506000Y-99710000D01*
X47726000Y-108130000D02*
X37506000Y-108130000D01*
X47726000Y-99710000D02*
X47726000Y-108130000D01*
X46506000Y-99710000D02*
X47726000Y-99710000D01*
X46506000Y-101910000D02*
X46506000Y-99710000D01*
D14*
%TO.C,G\u002A\u002A\u002A*%
G36*
X54186667Y-93903030D02*
G01*
X53978849Y-94110849D01*
X53771030Y-94318667D01*
X37236756Y-94318667D01*
X37248410Y-91473889D01*
X38946667Y-91473889D01*
X38946667Y-91842542D01*
X39687500Y-92029161D01*
X40136014Y-92139994D01*
X40532982Y-92231003D01*
X40902443Y-92304431D01*
X41268436Y-92362520D01*
X41654998Y-92407514D01*
X42086169Y-92441657D01*
X42585986Y-92467191D01*
X43178487Y-92486359D01*
X43887712Y-92501405D01*
X44737698Y-92514571D01*
X44915667Y-92517026D01*
X46104124Y-92526962D01*
X47138227Y-92521553D01*
X48032338Y-92499914D01*
X48800818Y-92461165D01*
X49458028Y-92404424D01*
X50018328Y-92328807D01*
X50496081Y-92233432D01*
X50781747Y-92156656D01*
X51021984Y-92098901D01*
X51190978Y-92085073D01*
X51232491Y-92098619D01*
X51291725Y-92212771D01*
X51370175Y-92420109D01*
X51390575Y-92481924D01*
X51471261Y-92689233D01*
X51568383Y-92774426D01*
X51735705Y-92780555D01*
X51760636Y-92778258D01*
X51914222Y-92754135D01*
X51996831Y-92690766D01*
X52034936Y-92544010D01*
X52053903Y-92289233D01*
X52098267Y-91934056D01*
X52177628Y-91706135D01*
X52281913Y-91617055D01*
X52401052Y-91678402D01*
X52479371Y-91799834D01*
X52548069Y-91923647D01*
X52564520Y-91899158D01*
X52557922Y-91821000D01*
X52575647Y-91624420D01*
X52609574Y-91540498D01*
X52611511Y-91415432D01*
X52532277Y-91266779D01*
X52417924Y-91157361D01*
X52320325Y-91145938D01*
X52193058Y-91154724D01*
X52119974Y-91134883D01*
X52038855Y-91056971D01*
X51996824Y-90879428D01*
X51985334Y-90584275D01*
X51981598Y-90306219D01*
X51957227Y-90157229D01*
X51892476Y-90097039D01*
X51767598Y-90085384D01*
X51740658Y-90085334D01*
X51577678Y-90110174D01*
X51457244Y-90211423D01*
X51334513Y-90429172D01*
X51318612Y-90462671D01*
X51141242Y-90840009D01*
X50737788Y-90717588D01*
X50492617Y-90646489D01*
X50317895Y-90601865D01*
X50273008Y-90594250D01*
X50196630Y-90526197D01*
X50091946Y-90361349D01*
X50080334Y-90339334D01*
X49929965Y-90163465D01*
X49741624Y-90082325D01*
X49568693Y-90106638D01*
X49473967Y-90217505D01*
X49446984Y-90249470D01*
X49383139Y-90275713D01*
X49267813Y-90296688D01*
X49086393Y-90312850D01*
X48824261Y-90324654D01*
X48466804Y-90332554D01*
X47999404Y-90337006D01*
X47407447Y-90338462D01*
X46676317Y-90337379D01*
X45791398Y-90334210D01*
X45730124Y-90333951D01*
X44789923Y-90330622D01*
X43998455Y-90330201D01*
X43335126Y-90333990D01*
X42779341Y-90343291D01*
X42310509Y-90359404D01*
X41908034Y-90383632D01*
X41551325Y-90417276D01*
X41219786Y-90461637D01*
X40892826Y-90518017D01*
X40549849Y-90587717D01*
X40170263Y-90672039D01*
X40089667Y-90690423D01*
X39629780Y-90802802D01*
X39311570Y-90904935D01*
X39109649Y-91014225D01*
X38998633Y-91148070D01*
X38953135Y-91323873D01*
X38946667Y-91473889D01*
X37248410Y-91473889D01*
X37266211Y-87129036D01*
X37271155Y-86040753D01*
X37276819Y-85001550D01*
X37283082Y-84023822D01*
X37289819Y-83119968D01*
X37296908Y-82302384D01*
X37304226Y-81583469D01*
X37311649Y-80975620D01*
X37319055Y-80491234D01*
X37326321Y-80142708D01*
X37333322Y-79942440D01*
X37338000Y-79897106D01*
X37432644Y-79876992D01*
X37666822Y-79848725D01*
X38011097Y-79815257D01*
X38436034Y-79779541D01*
X38735000Y-79756991D01*
X40269593Y-79606793D01*
X41678760Y-79383285D01*
X42993133Y-79078878D01*
X44243347Y-78685981D01*
X45460036Y-78197005D01*
X45952908Y-77968621D01*
X46990149Y-77470000D01*
X54186667Y-77470000D01*
X54186667Y-93903030D01*
G37*
X54186667Y-93903030D02*
X53978849Y-94110849D01*
X53771030Y-94318667D01*
X37236756Y-94318667D01*
X37248410Y-91473889D01*
X38946667Y-91473889D01*
X38946667Y-91842542D01*
X39687500Y-92029161D01*
X40136014Y-92139994D01*
X40532982Y-92231003D01*
X40902443Y-92304431D01*
X41268436Y-92362520D01*
X41654998Y-92407514D01*
X42086169Y-92441657D01*
X42585986Y-92467191D01*
X43178487Y-92486359D01*
X43887712Y-92501405D01*
X44737698Y-92514571D01*
X44915667Y-92517026D01*
X46104124Y-92526962D01*
X47138227Y-92521553D01*
X48032338Y-92499914D01*
X48800818Y-92461165D01*
X49458028Y-92404424D01*
X50018328Y-92328807D01*
X50496081Y-92233432D01*
X50781747Y-92156656D01*
X51021984Y-92098901D01*
X51190978Y-92085073D01*
X51232491Y-92098619D01*
X51291725Y-92212771D01*
X51370175Y-92420109D01*
X51390575Y-92481924D01*
X51471261Y-92689233D01*
X51568383Y-92774426D01*
X51735705Y-92780555D01*
X51760636Y-92778258D01*
X51914222Y-92754135D01*
X51996831Y-92690766D01*
X52034936Y-92544010D01*
X52053903Y-92289233D01*
X52098267Y-91934056D01*
X52177628Y-91706135D01*
X52281913Y-91617055D01*
X52401052Y-91678402D01*
X52479371Y-91799834D01*
X52548069Y-91923647D01*
X52564520Y-91899158D01*
X52557922Y-91821000D01*
X52575647Y-91624420D01*
X52609574Y-91540498D01*
X52611511Y-91415432D01*
X52532277Y-91266779D01*
X52417924Y-91157361D01*
X52320325Y-91145938D01*
X52193058Y-91154724D01*
X52119974Y-91134883D01*
X52038855Y-91056971D01*
X51996824Y-90879428D01*
X51985334Y-90584275D01*
X51981598Y-90306219D01*
X51957227Y-90157229D01*
X51892476Y-90097039D01*
X51767598Y-90085384D01*
X51740658Y-90085334D01*
X51577678Y-90110174D01*
X51457244Y-90211423D01*
X51334513Y-90429172D01*
X51318612Y-90462671D01*
X51141242Y-90840009D01*
X50737788Y-90717588D01*
X50492617Y-90646489D01*
X50317895Y-90601865D01*
X50273008Y-90594250D01*
X50196630Y-90526197D01*
X50091946Y-90361349D01*
X50080334Y-90339334D01*
X49929965Y-90163465D01*
X49741624Y-90082325D01*
X49568693Y-90106638D01*
X49473967Y-90217505D01*
X49446984Y-90249470D01*
X49383139Y-90275713D01*
X49267813Y-90296688D01*
X49086393Y-90312850D01*
X48824261Y-90324654D01*
X48466804Y-90332554D01*
X47999404Y-90337006D01*
X47407447Y-90338462D01*
X46676317Y-90337379D01*
X45791398Y-90334210D01*
X45730124Y-90333951D01*
X44789923Y-90330622D01*
X43998455Y-90330201D01*
X43335126Y-90333990D01*
X42779341Y-90343291D01*
X42310509Y-90359404D01*
X41908034Y-90383632D01*
X41551325Y-90417276D01*
X41219786Y-90461637D01*
X40892826Y-90518017D01*
X40549849Y-90587717D01*
X40170263Y-90672039D01*
X40089667Y-90690423D01*
X39629780Y-90802802D01*
X39311570Y-90904935D01*
X39109649Y-91014225D01*
X38998633Y-91148070D01*
X38953135Y-91323873D01*
X38946667Y-91473889D01*
X37248410Y-91473889D01*
X37266211Y-87129036D01*
X37271155Y-86040753D01*
X37276819Y-85001550D01*
X37283082Y-84023822D01*
X37289819Y-83119968D01*
X37296908Y-82302384D01*
X37304226Y-81583469D01*
X37311649Y-80975620D01*
X37319055Y-80491234D01*
X37326321Y-80142708D01*
X37333322Y-79942440D01*
X37338000Y-79897106D01*
X37432644Y-79876992D01*
X37666822Y-79848725D01*
X38011097Y-79815257D01*
X38436034Y-79779541D01*
X38735000Y-79756991D01*
X40269593Y-79606793D01*
X41678760Y-79383285D01*
X42993133Y-79078878D01*
X44243347Y-78685981D01*
X45460036Y-78197005D01*
X45952908Y-77968621D01*
X46990149Y-77470000D01*
X54186667Y-77470000D01*
X54186667Y-93903030D01*
D13*
%TO.C,C1*%
X33795000Y-97578748D02*
X33795000Y-98101252D01*
X35265000Y-97578748D02*
X35265000Y-98101252D01*
%TO.C,C2*%
X26495000Y-97538748D02*
X26495000Y-98061252D01*
X25025000Y-97538748D02*
X25025000Y-98061252D01*
%TO.C,C3*%
X68225000Y-94023252D02*
X68225000Y-93500748D01*
X66755000Y-94023252D02*
X66755000Y-93500748D01*
%TO.C,C4*%
X68855000Y-94003252D02*
X68855000Y-93480748D01*
X70325000Y-94003252D02*
X70325000Y-93480748D01*
%TO.C,C5*%
X72405000Y-94013252D02*
X72405000Y-93490748D01*
X70935000Y-94013252D02*
X70935000Y-93490748D01*
%TO.C,C6*%
X73055000Y-94013252D02*
X73055000Y-93490748D01*
X74525000Y-94013252D02*
X74525000Y-93490748D01*
%TO.C,C7*%
X75125000Y-94043252D02*
X75125000Y-93520748D01*
X76595000Y-94043252D02*
X76595000Y-93520748D01*
%TO.C,C8*%
X59443252Y-79729000D02*
X58920748Y-79729000D01*
X59443252Y-78259000D02*
X58920748Y-78259000D01*
%TO.C,C9*%
X58920748Y-86841000D02*
X59443252Y-86841000D01*
X58920748Y-85371000D02*
X59443252Y-85371000D01*
%TO.C,C10*%
X37605000Y-67909252D02*
X37605000Y-67386748D01*
X39075000Y-67909252D02*
X39075000Y-67386748D01*
%TO.C,C11*%
X39055000Y-72249252D02*
X39055000Y-71726748D01*
X37585000Y-72249252D02*
X37585000Y-71726748D01*
%TO.C,C12*%
X43172748Y-76173000D02*
X43695252Y-76173000D01*
X43172748Y-74703000D02*
X43695252Y-74703000D01*
%TO.C,C13*%
X49555000Y-65546748D02*
X49555000Y-66069252D01*
X51025000Y-65546748D02*
X51025000Y-66069252D01*
%TO.C,C16*%
X91721000Y-91193252D02*
X91721000Y-90670748D01*
X93191000Y-91193252D02*
X93191000Y-90670748D01*
%TO.C,C19*%
X85063000Y-71366748D02*
X85063000Y-71889252D01*
X83593000Y-71366748D02*
X83593000Y-71889252D01*
%TO.C,C20*%
X59443252Y-77443000D02*
X58920748Y-77443000D01*
X59443252Y-75973000D02*
X58920748Y-75973000D01*
%TO.C,C21*%
X84809000Y-85859252D02*
X84809000Y-85336748D01*
X83339000Y-85859252D02*
X83339000Y-85336748D01*
%TO.C,C22*%
X83339000Y-82303252D02*
X83339000Y-81780748D01*
X84809000Y-82303252D02*
X84809000Y-81780748D01*
%TO.C,C23*%
X97528748Y-79983000D02*
X98051252Y-79983000D01*
X97528748Y-78513000D02*
X98051252Y-78513000D01*
%TO.C,C24*%
X103624748Y-72671000D02*
X104147252Y-72671000D01*
X103624748Y-74141000D02*
X104147252Y-74141000D01*
%TO.C,C25*%
X103624748Y-77697000D02*
X104147252Y-77697000D01*
X103624748Y-76227000D02*
X104147252Y-76227000D01*
%TO.C,C26*%
X103624748Y-70839000D02*
X104147252Y-70839000D01*
X103624748Y-69369000D02*
X104147252Y-69369000D01*
%TO.C,D1*%
X35010000Y-94620000D02*
X35010000Y-91935000D01*
X35010000Y-91935000D02*
X33090000Y-91935000D01*
X33090000Y-91935000D02*
X33090000Y-94620000D01*
%TO.C,D2*%
X24760000Y-94680000D02*
X25690000Y-94680000D01*
X27920000Y-94680000D02*
X26990000Y-94680000D01*
X27920000Y-94680000D02*
X27920000Y-92520000D01*
X24760000Y-94680000D02*
X24760000Y-93220000D01*
%TO.C,D3*%
X60583000Y-67912000D02*
X63268000Y-67912000D01*
X60583000Y-65992000D02*
X60583000Y-67912000D01*
X63268000Y-65992000D02*
X60583000Y-65992000D01*
%TO.C,D4*%
X61308000Y-71812000D02*
X63993000Y-71812000D01*
X63993000Y-71812000D02*
X63993000Y-69892000D01*
X63993000Y-69892000D02*
X61308000Y-69892000D01*
%TO.C,J2*%
X24790000Y-80850000D02*
X27450000Y-80850000D01*
X24790000Y-68090000D02*
X24790000Y-80850000D01*
X27450000Y-68090000D02*
X27450000Y-80850000D01*
X24790000Y-68090000D02*
X27450000Y-68090000D01*
X24790000Y-66820000D02*
X24790000Y-65490000D01*
X24790000Y-65490000D02*
X26120000Y-65490000D01*
%TO.C,J3*%
X107502000Y-65592000D02*
X107502000Y-60392000D01*
X97282000Y-65592000D02*
X107502000Y-65592000D01*
X94682000Y-60392000D02*
X107502000Y-60392000D01*
X97282000Y-65592000D02*
X97282000Y-62992000D01*
X97282000Y-62992000D02*
X94682000Y-62992000D01*
X94682000Y-62992000D02*
X94682000Y-60392000D01*
X96012000Y-65592000D02*
X94682000Y-65592000D01*
X94682000Y-65592000D02*
X94682000Y-64262000D01*
%TO.C,J4*%
X30140000Y-65610000D02*
X31470000Y-65610000D01*
X30140000Y-66940000D02*
X30140000Y-65610000D01*
X30140000Y-68210000D02*
X32800000Y-68210000D01*
X32800000Y-68210000D02*
X32800000Y-80970000D01*
X30140000Y-68210000D02*
X30140000Y-80970000D01*
X30140000Y-80970000D02*
X32800000Y-80970000D01*
%TO.C,J5*%
X29020000Y-109060000D02*
X29020000Y-108680000D01*
X24970000Y-109060000D02*
X24710000Y-109060000D01*
X29020000Y-109060000D02*
X27250000Y-109060000D01*
X29020000Y-101440000D02*
X29020000Y-101820000D01*
X27250000Y-101440000D02*
X29020000Y-101440000D01*
X24710000Y-101440000D02*
X24970000Y-101440000D01*
%TO.C,J6*%
X27460000Y-80900000D02*
X30120000Y-80900000D01*
X27460000Y-68140000D02*
X27460000Y-80900000D01*
X30120000Y-68140000D02*
X30120000Y-80900000D01*
X27460000Y-68140000D02*
X30120000Y-68140000D01*
X27460000Y-66870000D02*
X27460000Y-65540000D01*
X27460000Y-65540000D02*
X28790000Y-65540000D01*
%TO.C,J7*%
X25340000Y-61020000D02*
X25340000Y-58420000D01*
X25340000Y-61020000D02*
X76260000Y-61020000D01*
X76260000Y-61020000D02*
X76260000Y-55820000D01*
X27940000Y-55820000D02*
X76260000Y-55820000D01*
X27940000Y-58420000D02*
X27940000Y-55820000D01*
X25340000Y-58420000D02*
X27940000Y-58420000D01*
X25340000Y-55820000D02*
X26670000Y-55820000D01*
X25340000Y-57150000D02*
X25340000Y-55820000D01*
%TO.C,J11*%
X87750000Y-101936000D02*
X87750000Y-99736000D01*
X87750000Y-99736000D02*
X88970000Y-99736000D01*
X88970000Y-99736000D02*
X88970000Y-108156000D01*
X88970000Y-108156000D02*
X76250000Y-108156000D01*
X76250000Y-108156000D02*
X76250000Y-99736000D01*
X76250000Y-99736000D02*
X77470000Y-99736000D01*
X77470000Y-99736000D02*
X77470000Y-101936000D01*
X88970000Y-106936000D02*
X87750000Y-106936000D01*
X87750000Y-106936000D02*
X87750000Y-101936000D01*
X87750000Y-101936000D02*
X88970000Y-101936000D01*
X76250000Y-106936000D02*
X77470000Y-106936000D01*
X77470000Y-106936000D02*
X77470000Y-101936000D01*
X77470000Y-101936000D02*
X76250000Y-101936000D01*
X87750000Y-102936000D02*
X77470000Y-102936000D01*
X86360000Y-102936000D02*
X86680000Y-102936000D01*
X86680000Y-102936000D02*
X86680000Y-106356000D01*
X86680000Y-106356000D02*
X86360000Y-106436000D01*
X86360000Y-106436000D02*
X86040000Y-106356000D01*
X86040000Y-106356000D02*
X86040000Y-102936000D01*
X86040000Y-102936000D02*
X86360000Y-102936000D01*
X85190000Y-101936000D02*
X85030000Y-101936000D01*
X83860000Y-102936000D02*
X84180000Y-102936000D01*
X84180000Y-102936000D02*
X84180000Y-106356000D01*
X84180000Y-106356000D02*
X83860000Y-106436000D01*
X83860000Y-106436000D02*
X83540000Y-106356000D01*
X83540000Y-106356000D02*
X83540000Y-102936000D01*
X83540000Y-102936000D02*
X83860000Y-102936000D01*
X82690000Y-101936000D02*
X82530000Y-101936000D01*
X81360000Y-102936000D02*
X81680000Y-102936000D01*
X81680000Y-102936000D02*
X81680000Y-106356000D01*
X81680000Y-106356000D02*
X81360000Y-106436000D01*
X81360000Y-106436000D02*
X81040000Y-106356000D01*
X81040000Y-106356000D02*
X81040000Y-102936000D01*
X81040000Y-102936000D02*
X81360000Y-102936000D01*
X80190000Y-101936000D02*
X80030000Y-101936000D01*
X78860000Y-102936000D02*
X79180000Y-102936000D01*
X79180000Y-102936000D02*
X79180000Y-106356000D01*
X79180000Y-106356000D02*
X78860000Y-106436000D01*
X78860000Y-106436000D02*
X78540000Y-106356000D01*
X78540000Y-106356000D02*
X78540000Y-102936000D01*
X78540000Y-102936000D02*
X78860000Y-102936000D01*
X86360000Y-99846000D02*
X86660000Y-99246000D01*
X86660000Y-99246000D02*
X86060000Y-99246000D01*
X86060000Y-99246000D02*
X86360000Y-99846000D01*
%TO.C,J12*%
X81834000Y-65600000D02*
X81534000Y-65000000D01*
X81234000Y-65600000D02*
X81834000Y-65600000D01*
X81534000Y-65000000D02*
X81234000Y-65600000D01*
X89354000Y-61910000D02*
X89034000Y-61910000D01*
X89354000Y-58490000D02*
X89354000Y-61910000D01*
X89034000Y-58410000D02*
X89354000Y-58490000D01*
X88714000Y-58490000D02*
X89034000Y-58410000D01*
X88714000Y-61910000D02*
X88714000Y-58490000D01*
X89034000Y-61910000D02*
X88714000Y-61910000D01*
X87704000Y-62910000D02*
X87864000Y-62910000D01*
X86854000Y-61910000D02*
X86534000Y-61910000D01*
X86854000Y-58490000D02*
X86854000Y-61910000D01*
X86534000Y-58410000D02*
X86854000Y-58490000D01*
X86214000Y-58490000D02*
X86534000Y-58410000D01*
X86214000Y-61910000D02*
X86214000Y-58490000D01*
X86534000Y-61910000D02*
X86214000Y-61910000D01*
X85204000Y-62910000D02*
X85364000Y-62910000D01*
X84354000Y-61910000D02*
X84034000Y-61910000D01*
X84354000Y-58490000D02*
X84354000Y-61910000D01*
X84034000Y-58410000D02*
X84354000Y-58490000D01*
X83714000Y-58490000D02*
X84034000Y-58410000D01*
X83714000Y-61910000D02*
X83714000Y-58490000D01*
X84034000Y-61910000D02*
X83714000Y-61910000D01*
X82704000Y-62910000D02*
X82864000Y-62910000D01*
X81854000Y-61910000D02*
X81534000Y-61910000D01*
X81854000Y-58490000D02*
X81854000Y-61910000D01*
X81534000Y-58410000D02*
X81854000Y-58490000D01*
X81214000Y-58490000D02*
X81534000Y-58410000D01*
X81214000Y-61910000D02*
X81214000Y-58490000D01*
X81534000Y-61910000D02*
X81214000Y-61910000D01*
X80144000Y-61910000D02*
X90424000Y-61910000D01*
X90424000Y-62910000D02*
X91644000Y-62910000D01*
X90424000Y-57910000D02*
X90424000Y-62910000D01*
X91644000Y-57910000D02*
X90424000Y-57910000D01*
X80144000Y-62910000D02*
X78924000Y-62910000D01*
X80144000Y-57910000D02*
X80144000Y-62910000D01*
X78924000Y-57910000D02*
X80144000Y-57910000D01*
X90424000Y-65110000D02*
X90424000Y-62910000D01*
X91644000Y-65110000D02*
X90424000Y-65110000D01*
X91644000Y-56690000D02*
X91644000Y-65110000D01*
X78924000Y-56690000D02*
X91644000Y-56690000D01*
X78924000Y-65110000D02*
X78924000Y-56690000D01*
X80144000Y-65110000D02*
X78924000Y-65110000D01*
X80144000Y-62910000D02*
X80144000Y-65110000D01*
%TO.C,R1*%
X31212500Y-93282742D02*
X31212500Y-93757258D01*
X30167500Y-93282742D02*
X30167500Y-93757258D01*
%TO.C,R2*%
X70626500Y-73422742D02*
X70626500Y-73897258D01*
X69581500Y-73422742D02*
X69581500Y-73897258D01*
%TO.C,R3*%
X66787500Y-73422742D02*
X66787500Y-73897258D01*
X67832500Y-73422742D02*
X67832500Y-73897258D01*
%TO.C,R4*%
X50922500Y-74450742D02*
X50922500Y-74925258D01*
X49877500Y-74450742D02*
X49877500Y-74925258D01*
%TO.C,R5*%
X78215258Y-69073500D02*
X77740742Y-69073500D01*
X78215258Y-70118500D02*
X77740742Y-70118500D01*
%TO.C,R6*%
X32852742Y-108052500D02*
X33327258Y-108052500D01*
X32852742Y-107007500D02*
X33327258Y-107007500D01*
%TO.C,R7*%
X32872742Y-104047500D02*
X33347258Y-104047500D01*
X32872742Y-105092500D02*
X33347258Y-105092500D01*
%TO.C,R8*%
X105903500Y-85581258D02*
X105903500Y-85106742D01*
X106948500Y-85581258D02*
X106948500Y-85106742D01*
%TO.C,R9*%
X97011258Y-92441500D02*
X96536742Y-92441500D01*
X97011258Y-93486500D02*
X96536742Y-93486500D01*
%TO.C,R10*%
X63262742Y-76185500D02*
X63737258Y-76185500D01*
X63262742Y-77230500D02*
X63737258Y-77230500D01*
%TO.C,R11*%
X98058500Y-96757258D02*
X98058500Y-96282742D01*
X97013500Y-96757258D02*
X97013500Y-96282742D01*
%TO.C,R12*%
X100061500Y-96757258D02*
X100061500Y-96282742D01*
X101106500Y-96757258D02*
X101106500Y-96282742D01*
%TO.C,R13*%
X57950742Y-67404500D02*
X58425258Y-67404500D01*
X57950742Y-66359500D02*
X58425258Y-66359500D01*
%TO.C,R14*%
X57995742Y-71424500D02*
X58470258Y-71424500D01*
X57995742Y-70379500D02*
X58470258Y-70379500D01*
%TO.C,R15*%
X50277500Y-97011258D02*
X50277500Y-96536742D01*
X51322500Y-97011258D02*
X51322500Y-96536742D01*
%TO.C,SW1*%
X74470000Y-64406000D02*
X74470000Y-63956000D01*
X74470000Y-63956000D02*
X67770000Y-63956000D01*
X67770000Y-63956000D02*
X67770000Y-64356000D01*
X74470000Y-65706000D02*
X74470000Y-68406000D01*
X67770000Y-68406000D02*
X67770000Y-65706000D01*
X74470000Y-70156000D02*
X67770000Y-70156000D01*
X67770000Y-70156000D02*
X67770000Y-69706000D01*
X74470000Y-69706000D02*
X74470000Y-70156000D01*
%TO.C,SW2*%
X56594000Y-90060000D02*
X56594000Y-89610000D01*
X63294000Y-89610000D02*
X63294000Y-90060000D01*
X56594000Y-89610000D02*
X63294000Y-89610000D01*
X63294000Y-91360000D02*
X63294000Y-94060000D01*
X56594000Y-94060000D02*
X56594000Y-91360000D01*
X63294000Y-95810000D02*
X63294000Y-95410000D01*
X56594000Y-95810000D02*
X63294000Y-95810000D01*
X56594000Y-95360000D02*
X56594000Y-95810000D01*
D15*
%TO.C,U1*%
X29130000Y-100445000D02*
G75*
G03*
X29130000Y-100445000I-100000J0D01*
G01*
D16*
X28480000Y-99450000D02*
X28480000Y-96450000D01*
X31480000Y-99450000D02*
X31480000Y-96450000D01*
D13*
%TO.C,U2*%
X76000000Y-88232000D02*
X76950000Y-88232000D01*
X76950000Y-88232000D02*
X76950000Y-87282000D01*
X67680000Y-88232000D02*
X66730000Y-88232000D01*
X66730000Y-88232000D02*
X66730000Y-87282000D01*
X76000000Y-78012000D02*
X76950000Y-78012000D01*
X76950000Y-78012000D02*
X76950000Y-78962000D01*
X67680000Y-78012000D02*
X66730000Y-78012000D01*
X66730000Y-78012000D02*
X66730000Y-78962000D01*
X66730000Y-78962000D02*
X65390000Y-78962000D01*
D11*
%TO.C,U3*%
X46520000Y-66708000D02*
X46520000Y-67233000D01*
X42220000Y-71008000D02*
X42220000Y-70483000D01*
X46520000Y-71008000D02*
X46520000Y-70483000D01*
X42220000Y-66708000D02*
X42745000Y-66708000D01*
X42220000Y-71008000D02*
X42745000Y-71008000D01*
X46520000Y-71008000D02*
X45995000Y-71008000D01*
X46520000Y-66708000D02*
X45995000Y-66708000D01*
D15*
%TO.C,U4*%
X94821000Y-84963000D02*
G75*
G03*
X94821000Y-84963000I-100000J0D01*
G01*
D16*
X95806000Y-84368000D02*
X101806000Y-84368000D01*
X95806000Y-89368000D02*
X101806000Y-89368000D01*
D13*
%TO.C,U6*%
X91574000Y-70298000D02*
X92074000Y-70298000D01*
X92074000Y-70298000D02*
X92074000Y-70798000D01*
X92074000Y-74998000D02*
X92074000Y-75498000D01*
X92074000Y-75498000D02*
X91574000Y-75498000D01*
X89274000Y-75498000D02*
X88774000Y-75498000D01*
X88774000Y-75498000D02*
X88774000Y-74998000D01*
X88874000Y-70298000D02*
X89824000Y-70298000D01*
D17*
%TO.C,U7*%
X98627499Y-72428100D02*
X99008499Y-72428100D01*
X99008499Y-72428100D02*
X99008499Y-72682100D01*
X99008499Y-72682100D02*
X98627499Y-72682100D01*
X98627499Y-72682100D02*
X98627499Y-72428100D01*
D13*
%TO.C,Y1*%
X61182000Y-84200000D02*
X61182000Y-80900000D01*
X61182000Y-80900000D02*
X57182000Y-80900000D01*
%TO.C,J1*%
X32420000Y-89710000D02*
X34620000Y-89710000D01*
X34620000Y-89710000D02*
X34620000Y-90930000D01*
X34620000Y-90930000D02*
X26200000Y-90930000D01*
X26200000Y-90930000D02*
X26200000Y-83210000D01*
X26200000Y-83210000D02*
X34620000Y-83210000D01*
X34620000Y-83210000D02*
X34620000Y-84430000D01*
X34620000Y-84430000D02*
X32420000Y-84430000D01*
X27420000Y-90930000D02*
X27420000Y-89710000D01*
X27420000Y-89710000D02*
X32420000Y-89710000D01*
X32420000Y-89710000D02*
X32420000Y-90930000D01*
X27420000Y-83210000D02*
X27420000Y-84430000D01*
X27420000Y-84430000D02*
X32420000Y-84430000D01*
X32420000Y-84430000D02*
X32420000Y-83210000D01*
X31420000Y-89710000D02*
X31420000Y-84430000D01*
X31420000Y-88320000D02*
X31420000Y-88640000D01*
X31420000Y-88640000D02*
X28000000Y-88640000D01*
X28000000Y-88640000D02*
X27920000Y-88320000D01*
X27920000Y-88320000D02*
X28000000Y-88000000D01*
X28000000Y-88000000D02*
X31420000Y-88000000D01*
X31420000Y-88000000D02*
X31420000Y-88320000D01*
X32420000Y-87150000D02*
X32420000Y-86990000D01*
X31420000Y-85820000D02*
X31420000Y-86140000D01*
X31420000Y-86140000D02*
X28000000Y-86140000D01*
X28000000Y-86140000D02*
X27920000Y-85820000D01*
X27920000Y-85820000D02*
X28000000Y-85500000D01*
X28000000Y-85500000D02*
X31420000Y-85500000D01*
X31420000Y-85500000D02*
X31420000Y-85820000D01*
X34510000Y-88320000D02*
X35110000Y-88620000D01*
X35110000Y-88620000D02*
X35110000Y-88020000D01*
X35110000Y-88020000D02*
X34510000Y-88320000D01*
%TO.C,J9*%
D11*
X100440666Y-106678380D02*
X100440666Y-107392666D01*
X100393047Y-107535523D01*
X100297809Y-107630761D01*
X100154952Y-107678380D01*
X100059714Y-107678380D01*
X100964476Y-107678380D02*
X101154952Y-107678380D01*
X101250190Y-107630761D01*
X101297809Y-107583142D01*
X101393047Y-107440285D01*
X101440666Y-107249809D01*
X101440666Y-106868857D01*
X101393047Y-106773619D01*
X101345428Y-106726000D01*
X101250190Y-106678380D01*
X101059714Y-106678380D01*
X100964476Y-106726000D01*
X100916857Y-106773619D01*
X100869238Y-106868857D01*
X100869238Y-107106952D01*
X100916857Y-107202190D01*
X100964476Y-107249809D01*
X101059714Y-107297428D01*
X101250190Y-107297428D01*
X101345428Y-107249809D01*
X101393047Y-107202190D01*
X101440666Y-107106952D01*
%TO.C,J8*%
X61732666Y-106758380D02*
X61732666Y-107472666D01*
X61685047Y-107615523D01*
X61589809Y-107710761D01*
X61446952Y-107758380D01*
X61351714Y-107758380D01*
X62351714Y-107186952D02*
X62256476Y-107139333D01*
X62208857Y-107091714D01*
X62161238Y-106996476D01*
X62161238Y-106948857D01*
X62208857Y-106853619D01*
X62256476Y-106806000D01*
X62351714Y-106758380D01*
X62542190Y-106758380D01*
X62637428Y-106806000D01*
X62685047Y-106853619D01*
X62732666Y-106948857D01*
X62732666Y-106996476D01*
X62685047Y-107091714D01*
X62637428Y-107139333D01*
X62542190Y-107186952D01*
X62351714Y-107186952D01*
X62256476Y-107234571D01*
X62208857Y-107282190D01*
X62161238Y-107377428D01*
X62161238Y-107567904D01*
X62208857Y-107663142D01*
X62256476Y-107710761D01*
X62351714Y-107758380D01*
X62542190Y-107758380D01*
X62637428Y-107710761D01*
X62685047Y-107663142D01*
X62732666Y-107567904D01*
X62732666Y-107377428D01*
X62685047Y-107282190D01*
X62637428Y-107234571D01*
X62542190Y-107186952D01*
%TO.C,J10*%
X41346476Y-106772380D02*
X41346476Y-107486666D01*
X41298857Y-107629523D01*
X41203619Y-107724761D01*
X41060761Y-107772380D01*
X40965523Y-107772380D01*
X42346476Y-107772380D02*
X41775047Y-107772380D01*
X42060761Y-107772380D02*
X42060761Y-106772380D01*
X41965523Y-106915238D01*
X41870285Y-107010476D01*
X41775047Y-107058095D01*
X42965523Y-106772380D02*
X43060761Y-106772380D01*
X43156000Y-106820000D01*
X43203619Y-106867619D01*
X43251238Y-106962857D01*
X43298857Y-107153333D01*
X43298857Y-107391428D01*
X43251238Y-107581904D01*
X43203619Y-107677142D01*
X43156000Y-107724761D01*
X43060761Y-107772380D01*
X42965523Y-107772380D01*
X42870285Y-107724761D01*
X42822666Y-107677142D01*
X42775047Y-107581904D01*
X42727428Y-107391428D01*
X42727428Y-107153333D01*
X42775047Y-106962857D01*
X42822666Y-106867619D01*
X42870285Y-106820000D01*
X42965523Y-106772380D01*
%TO.C,C1*%
X36567142Y-98006666D02*
X36614761Y-98054285D01*
X36662380Y-98197142D01*
X36662380Y-98292380D01*
X36614761Y-98435238D01*
X36519523Y-98530476D01*
X36424285Y-98578095D01*
X36233809Y-98625714D01*
X36090952Y-98625714D01*
X35900476Y-98578095D01*
X35805238Y-98530476D01*
X35710000Y-98435238D01*
X35662380Y-98292380D01*
X35662380Y-98197142D01*
X35710000Y-98054285D01*
X35757619Y-98006666D01*
X36662380Y-97054285D02*
X36662380Y-97625714D01*
X36662380Y-97340000D02*
X35662380Y-97340000D01*
X35805238Y-97435238D01*
X35900476Y-97530476D01*
X35948095Y-97625714D01*
%TO.C,C2*%
X27797142Y-97966666D02*
X27844761Y-98014285D01*
X27892380Y-98157142D01*
X27892380Y-98252380D01*
X27844761Y-98395238D01*
X27749523Y-98490476D01*
X27654285Y-98538095D01*
X27463809Y-98585714D01*
X27320952Y-98585714D01*
X27130476Y-98538095D01*
X27035238Y-98490476D01*
X26940000Y-98395238D01*
X26892380Y-98252380D01*
X26892380Y-98157142D01*
X26940000Y-98014285D01*
X26987619Y-97966666D01*
X26987619Y-97585714D02*
X26940000Y-97538095D01*
X26892380Y-97442857D01*
X26892380Y-97204761D01*
X26940000Y-97109523D01*
X26987619Y-97061904D01*
X27082857Y-97014285D01*
X27178095Y-97014285D01*
X27320952Y-97061904D01*
X27892380Y-97633333D01*
X27892380Y-97014285D01*
%TO.C,C3*%
X67213333Y-96529142D02*
X67165714Y-96576761D01*
X67022857Y-96624380D01*
X66927619Y-96624380D01*
X66784761Y-96576761D01*
X66689523Y-96481523D01*
X66641904Y-96386285D01*
X66594285Y-96195809D01*
X66594285Y-96052952D01*
X66641904Y-95862476D01*
X66689523Y-95767238D01*
X66784761Y-95672000D01*
X66927619Y-95624380D01*
X67022857Y-95624380D01*
X67165714Y-95672000D01*
X67213333Y-95719619D01*
X67546666Y-95624380D02*
X68165714Y-95624380D01*
X67832380Y-96005333D01*
X67975238Y-96005333D01*
X68070476Y-96052952D01*
X68118095Y-96100571D01*
X68165714Y-96195809D01*
X68165714Y-96433904D01*
X68118095Y-96529142D01*
X68070476Y-96576761D01*
X67975238Y-96624380D01*
X67689523Y-96624380D01*
X67594285Y-96576761D01*
X67546666Y-96529142D01*
%TO.C,C4*%
X69433333Y-96529142D02*
X69385714Y-96576761D01*
X69242857Y-96624380D01*
X69147619Y-96624380D01*
X69004761Y-96576761D01*
X68909523Y-96481523D01*
X68861904Y-96386285D01*
X68814285Y-96195809D01*
X68814285Y-96052952D01*
X68861904Y-95862476D01*
X68909523Y-95767238D01*
X69004761Y-95672000D01*
X69147619Y-95624380D01*
X69242857Y-95624380D01*
X69385714Y-95672000D01*
X69433333Y-95719619D01*
X70290476Y-95957714D02*
X70290476Y-96624380D01*
X70052380Y-95576761D02*
X69814285Y-96291047D01*
X70433333Y-96291047D01*
%TO.C,C5*%
X71403333Y-96419142D02*
X71355714Y-96466761D01*
X71212857Y-96514380D01*
X71117619Y-96514380D01*
X70974761Y-96466761D01*
X70879523Y-96371523D01*
X70831904Y-96276285D01*
X70784285Y-96085809D01*
X70784285Y-95942952D01*
X70831904Y-95752476D01*
X70879523Y-95657238D01*
X70974761Y-95562000D01*
X71117619Y-95514380D01*
X71212857Y-95514380D01*
X71355714Y-95562000D01*
X71403333Y-95609619D01*
X72308095Y-95514380D02*
X71831904Y-95514380D01*
X71784285Y-95990571D01*
X71831904Y-95942952D01*
X71927142Y-95895333D01*
X72165238Y-95895333D01*
X72260476Y-95942952D01*
X72308095Y-95990571D01*
X72355714Y-96085809D01*
X72355714Y-96323904D01*
X72308095Y-96419142D01*
X72260476Y-96466761D01*
X72165238Y-96514380D01*
X71927142Y-96514380D01*
X71831904Y-96466761D01*
X71784285Y-96419142D01*
%TO.C,C6*%
X73593333Y-96509142D02*
X73545714Y-96556761D01*
X73402857Y-96604380D01*
X73307619Y-96604380D01*
X73164761Y-96556761D01*
X73069523Y-96461523D01*
X73021904Y-96366285D01*
X72974285Y-96175809D01*
X72974285Y-96032952D01*
X73021904Y-95842476D01*
X73069523Y-95747238D01*
X73164761Y-95652000D01*
X73307619Y-95604380D01*
X73402857Y-95604380D01*
X73545714Y-95652000D01*
X73593333Y-95699619D01*
X74450476Y-95604380D02*
X74260000Y-95604380D01*
X74164761Y-95652000D01*
X74117142Y-95699619D01*
X74021904Y-95842476D01*
X73974285Y-96032952D01*
X73974285Y-96413904D01*
X74021904Y-96509142D01*
X74069523Y-96556761D01*
X74164761Y-96604380D01*
X74355238Y-96604380D01*
X74450476Y-96556761D01*
X74498095Y-96509142D01*
X74545714Y-96413904D01*
X74545714Y-96175809D01*
X74498095Y-96080571D01*
X74450476Y-96032952D01*
X74355238Y-95985333D01*
X74164761Y-95985333D01*
X74069523Y-96032952D01*
X74021904Y-96080571D01*
X73974285Y-96175809D01*
%TO.C,C7*%
X75623333Y-96479142D02*
X75575714Y-96526761D01*
X75432857Y-96574380D01*
X75337619Y-96574380D01*
X75194761Y-96526761D01*
X75099523Y-96431523D01*
X75051904Y-96336285D01*
X75004285Y-96145809D01*
X75004285Y-96002952D01*
X75051904Y-95812476D01*
X75099523Y-95717238D01*
X75194761Y-95622000D01*
X75337619Y-95574380D01*
X75432857Y-95574380D01*
X75575714Y-95622000D01*
X75623333Y-95669619D01*
X75956666Y-95574380D02*
X76623333Y-95574380D01*
X76194761Y-96574380D01*
%TO.C,C8*%
X56999142Y-79160666D02*
X57046761Y-79208285D01*
X57094380Y-79351142D01*
X57094380Y-79446380D01*
X57046761Y-79589238D01*
X56951523Y-79684476D01*
X56856285Y-79732095D01*
X56665809Y-79779714D01*
X56522952Y-79779714D01*
X56332476Y-79732095D01*
X56237238Y-79684476D01*
X56142000Y-79589238D01*
X56094380Y-79446380D01*
X56094380Y-79351142D01*
X56142000Y-79208285D01*
X56189619Y-79160666D01*
X56522952Y-78589238D02*
X56475333Y-78684476D01*
X56427714Y-78732095D01*
X56332476Y-78779714D01*
X56284857Y-78779714D01*
X56189619Y-78732095D01*
X56142000Y-78684476D01*
X56094380Y-78589238D01*
X56094380Y-78398761D01*
X56142000Y-78303523D01*
X56189619Y-78255904D01*
X56284857Y-78208285D01*
X56332476Y-78208285D01*
X56427714Y-78255904D01*
X56475333Y-78303523D01*
X56522952Y-78398761D01*
X56522952Y-78589238D01*
X56570571Y-78684476D01*
X56618190Y-78732095D01*
X56713428Y-78779714D01*
X56903904Y-78779714D01*
X56999142Y-78732095D01*
X57046761Y-78684476D01*
X57094380Y-78589238D01*
X57094380Y-78398761D01*
X57046761Y-78303523D01*
X56999142Y-78255904D01*
X56903904Y-78208285D01*
X56713428Y-78208285D01*
X56618190Y-78255904D01*
X56570571Y-78303523D01*
X56522952Y-78398761D01*
%TO.C,C9*%
X56999142Y-86272666D02*
X57046761Y-86320285D01*
X57094380Y-86463142D01*
X57094380Y-86558380D01*
X57046761Y-86701238D01*
X56951523Y-86796476D01*
X56856285Y-86844095D01*
X56665809Y-86891714D01*
X56522952Y-86891714D01*
X56332476Y-86844095D01*
X56237238Y-86796476D01*
X56142000Y-86701238D01*
X56094380Y-86558380D01*
X56094380Y-86463142D01*
X56142000Y-86320285D01*
X56189619Y-86272666D01*
X57094380Y-85796476D02*
X57094380Y-85606000D01*
X57046761Y-85510761D01*
X56999142Y-85463142D01*
X56856285Y-85367904D01*
X56665809Y-85320285D01*
X56284857Y-85320285D01*
X56189619Y-85367904D01*
X56142000Y-85415523D01*
X56094380Y-85510761D01*
X56094380Y-85701238D01*
X56142000Y-85796476D01*
X56189619Y-85844095D01*
X56284857Y-85891714D01*
X56522952Y-85891714D01*
X56618190Y-85844095D01*
X56665809Y-85796476D01*
X56713428Y-85701238D01*
X56713428Y-85510761D01*
X56665809Y-85415523D01*
X56618190Y-85367904D01*
X56522952Y-85320285D01*
%TO.C,C10*%
X37017142Y-68290857D02*
X37064761Y-68338476D01*
X37112380Y-68481333D01*
X37112380Y-68576571D01*
X37064761Y-68719428D01*
X36969523Y-68814666D01*
X36874285Y-68862285D01*
X36683809Y-68909904D01*
X36540952Y-68909904D01*
X36350476Y-68862285D01*
X36255238Y-68814666D01*
X36160000Y-68719428D01*
X36112380Y-68576571D01*
X36112380Y-68481333D01*
X36160000Y-68338476D01*
X36207619Y-68290857D01*
X37112380Y-67338476D02*
X37112380Y-67909904D01*
X37112380Y-67624190D02*
X36112380Y-67624190D01*
X36255238Y-67719428D01*
X36350476Y-67814666D01*
X36398095Y-67909904D01*
X36112380Y-66719428D02*
X36112380Y-66624190D01*
X36160000Y-66528952D01*
X36207619Y-66481333D01*
X36302857Y-66433714D01*
X36493333Y-66386095D01*
X36731428Y-66386095D01*
X36921904Y-66433714D01*
X37017142Y-66481333D01*
X37064761Y-66528952D01*
X37112380Y-66624190D01*
X37112380Y-66719428D01*
X37064761Y-66814666D01*
X37017142Y-66862285D01*
X36921904Y-66909904D01*
X36731428Y-66957523D01*
X36493333Y-66957523D01*
X36302857Y-66909904D01*
X36207619Y-66862285D01*
X36160000Y-66814666D01*
X36112380Y-66719428D01*
%TO.C,C11*%
X36997142Y-72630857D02*
X37044761Y-72678476D01*
X37092380Y-72821333D01*
X37092380Y-72916571D01*
X37044761Y-73059428D01*
X36949523Y-73154666D01*
X36854285Y-73202285D01*
X36663809Y-73249904D01*
X36520952Y-73249904D01*
X36330476Y-73202285D01*
X36235238Y-73154666D01*
X36140000Y-73059428D01*
X36092380Y-72916571D01*
X36092380Y-72821333D01*
X36140000Y-72678476D01*
X36187619Y-72630857D01*
X37092380Y-71678476D02*
X37092380Y-72249904D01*
X37092380Y-71964190D02*
X36092380Y-71964190D01*
X36235238Y-72059428D01*
X36330476Y-72154666D01*
X36378095Y-72249904D01*
X37092380Y-70726095D02*
X37092380Y-71297523D01*
X37092380Y-71011809D02*
X36092380Y-71011809D01*
X36235238Y-71107047D01*
X36330476Y-71202285D01*
X36378095Y-71297523D01*
%TO.C,C12*%
X42791142Y-74115142D02*
X42743523Y-74162761D01*
X42600666Y-74210380D01*
X42505428Y-74210380D01*
X42362571Y-74162761D01*
X42267333Y-74067523D01*
X42219714Y-73972285D01*
X42172095Y-73781809D01*
X42172095Y-73638952D01*
X42219714Y-73448476D01*
X42267333Y-73353238D01*
X42362571Y-73258000D01*
X42505428Y-73210380D01*
X42600666Y-73210380D01*
X42743523Y-73258000D01*
X42791142Y-73305619D01*
X43743523Y-74210380D02*
X43172095Y-74210380D01*
X43457809Y-74210380D02*
X43457809Y-73210380D01*
X43362571Y-73353238D01*
X43267333Y-73448476D01*
X43172095Y-73496095D01*
X44124476Y-73305619D02*
X44172095Y-73258000D01*
X44267333Y-73210380D01*
X44505428Y-73210380D01*
X44600666Y-73258000D01*
X44648285Y-73305619D01*
X44695904Y-73400857D01*
X44695904Y-73496095D01*
X44648285Y-73638952D01*
X44076857Y-74210380D01*
X44695904Y-74210380D01*
%TO.C,C13*%
X52327142Y-66450857D02*
X52374761Y-66498476D01*
X52422380Y-66641333D01*
X52422380Y-66736571D01*
X52374761Y-66879428D01*
X52279523Y-66974666D01*
X52184285Y-67022285D01*
X51993809Y-67069904D01*
X51850952Y-67069904D01*
X51660476Y-67022285D01*
X51565238Y-66974666D01*
X51470000Y-66879428D01*
X51422380Y-66736571D01*
X51422380Y-66641333D01*
X51470000Y-66498476D01*
X51517619Y-66450857D01*
X52422380Y-65498476D02*
X52422380Y-66069904D01*
X52422380Y-65784190D02*
X51422380Y-65784190D01*
X51565238Y-65879428D01*
X51660476Y-65974666D01*
X51708095Y-66069904D01*
X51422380Y-65165142D02*
X51422380Y-64546095D01*
X51803333Y-64879428D01*
X51803333Y-64736571D01*
X51850952Y-64641333D01*
X51898571Y-64593714D01*
X51993809Y-64546095D01*
X52231904Y-64546095D01*
X52327142Y-64593714D01*
X52374761Y-64641333D01*
X52422380Y-64736571D01*
X52422380Y-65022285D01*
X52374761Y-65117523D01*
X52327142Y-65165142D01*
%TO.C,C16*%
X91133142Y-91574857D02*
X91180761Y-91622476D01*
X91228380Y-91765333D01*
X91228380Y-91860571D01*
X91180761Y-92003428D01*
X91085523Y-92098666D01*
X90990285Y-92146285D01*
X90799809Y-92193904D01*
X90656952Y-92193904D01*
X90466476Y-92146285D01*
X90371238Y-92098666D01*
X90276000Y-92003428D01*
X90228380Y-91860571D01*
X90228380Y-91765333D01*
X90276000Y-91622476D01*
X90323619Y-91574857D01*
X91228380Y-90622476D02*
X91228380Y-91193904D01*
X91228380Y-90908190D02*
X90228380Y-90908190D01*
X90371238Y-91003428D01*
X90466476Y-91098666D01*
X90514095Y-91193904D01*
X90228380Y-89765333D02*
X90228380Y-89955809D01*
X90276000Y-90051047D01*
X90323619Y-90098666D01*
X90466476Y-90193904D01*
X90656952Y-90241523D01*
X91037904Y-90241523D01*
X91133142Y-90193904D01*
X91180761Y-90146285D01*
X91228380Y-90051047D01*
X91228380Y-89860571D01*
X91180761Y-89765333D01*
X91133142Y-89717714D01*
X91037904Y-89670095D01*
X90799809Y-89670095D01*
X90704571Y-89717714D01*
X90656952Y-89765333D01*
X90609333Y-89860571D01*
X90609333Y-90051047D01*
X90656952Y-90146285D01*
X90704571Y-90193904D01*
X90799809Y-90241523D01*
%TO.C,C19*%
X86365142Y-72270857D02*
X86412761Y-72318476D01*
X86460380Y-72461333D01*
X86460380Y-72556571D01*
X86412761Y-72699428D01*
X86317523Y-72794666D01*
X86222285Y-72842285D01*
X86031809Y-72889904D01*
X85888952Y-72889904D01*
X85698476Y-72842285D01*
X85603238Y-72794666D01*
X85508000Y-72699428D01*
X85460380Y-72556571D01*
X85460380Y-72461333D01*
X85508000Y-72318476D01*
X85555619Y-72270857D01*
X86460380Y-71318476D02*
X86460380Y-71889904D01*
X86460380Y-71604190D02*
X85460380Y-71604190D01*
X85603238Y-71699428D01*
X85698476Y-71794666D01*
X85746095Y-71889904D01*
X86460380Y-70842285D02*
X86460380Y-70651809D01*
X86412761Y-70556571D01*
X86365142Y-70508952D01*
X86222285Y-70413714D01*
X86031809Y-70366095D01*
X85650857Y-70366095D01*
X85555619Y-70413714D01*
X85508000Y-70461333D01*
X85460380Y-70556571D01*
X85460380Y-70747047D01*
X85508000Y-70842285D01*
X85555619Y-70889904D01*
X85650857Y-70937523D01*
X85888952Y-70937523D01*
X85984190Y-70889904D01*
X86031809Y-70842285D01*
X86079428Y-70747047D01*
X86079428Y-70556571D01*
X86031809Y-70461333D01*
X85984190Y-70413714D01*
X85888952Y-70366095D01*
%TO.C,C20*%
X56745142Y-77350857D02*
X56792761Y-77398476D01*
X56840380Y-77541333D01*
X56840380Y-77636571D01*
X56792761Y-77779428D01*
X56697523Y-77874666D01*
X56602285Y-77922285D01*
X56411809Y-77969904D01*
X56268952Y-77969904D01*
X56078476Y-77922285D01*
X55983238Y-77874666D01*
X55888000Y-77779428D01*
X55840380Y-77636571D01*
X55840380Y-77541333D01*
X55888000Y-77398476D01*
X55935619Y-77350857D01*
X55935619Y-76969904D02*
X55888000Y-76922285D01*
X55840380Y-76827047D01*
X55840380Y-76588952D01*
X55888000Y-76493714D01*
X55935619Y-76446095D01*
X56030857Y-76398476D01*
X56126095Y-76398476D01*
X56268952Y-76446095D01*
X56840380Y-77017523D01*
X56840380Y-76398476D01*
X55840380Y-75779428D02*
X55840380Y-75684190D01*
X55888000Y-75588952D01*
X55935619Y-75541333D01*
X56030857Y-75493714D01*
X56221333Y-75446095D01*
X56459428Y-75446095D01*
X56649904Y-75493714D01*
X56745142Y-75541333D01*
X56792761Y-75588952D01*
X56840380Y-75684190D01*
X56840380Y-75779428D01*
X56792761Y-75874666D01*
X56745142Y-75922285D01*
X56649904Y-75969904D01*
X56459428Y-76017523D01*
X56221333Y-76017523D01*
X56030857Y-75969904D01*
X55935619Y-75922285D01*
X55888000Y-75874666D01*
X55840380Y-75779428D01*
%TO.C,C21*%
X82751142Y-86240857D02*
X82798761Y-86288476D01*
X82846380Y-86431333D01*
X82846380Y-86526571D01*
X82798761Y-86669428D01*
X82703523Y-86764666D01*
X82608285Y-86812285D01*
X82417809Y-86859904D01*
X82274952Y-86859904D01*
X82084476Y-86812285D01*
X81989238Y-86764666D01*
X81894000Y-86669428D01*
X81846380Y-86526571D01*
X81846380Y-86431333D01*
X81894000Y-86288476D01*
X81941619Y-86240857D01*
X81941619Y-85859904D02*
X81894000Y-85812285D01*
X81846380Y-85717047D01*
X81846380Y-85478952D01*
X81894000Y-85383714D01*
X81941619Y-85336095D01*
X82036857Y-85288476D01*
X82132095Y-85288476D01*
X82274952Y-85336095D01*
X82846380Y-85907523D01*
X82846380Y-85288476D01*
X82846380Y-84336095D02*
X82846380Y-84907523D01*
X82846380Y-84621809D02*
X81846380Y-84621809D01*
X81989238Y-84717047D01*
X82084476Y-84812285D01*
X82132095Y-84907523D01*
%TO.C,C22*%
X82751142Y-82684857D02*
X82798761Y-82732476D01*
X82846380Y-82875333D01*
X82846380Y-82970571D01*
X82798761Y-83113428D01*
X82703523Y-83208666D01*
X82608285Y-83256285D01*
X82417809Y-83303904D01*
X82274952Y-83303904D01*
X82084476Y-83256285D01*
X81989238Y-83208666D01*
X81894000Y-83113428D01*
X81846380Y-82970571D01*
X81846380Y-82875333D01*
X81894000Y-82732476D01*
X81941619Y-82684857D01*
X81941619Y-82303904D02*
X81894000Y-82256285D01*
X81846380Y-82161047D01*
X81846380Y-81922952D01*
X81894000Y-81827714D01*
X81941619Y-81780095D01*
X82036857Y-81732476D01*
X82132095Y-81732476D01*
X82274952Y-81780095D01*
X82846380Y-82351523D01*
X82846380Y-81732476D01*
X81941619Y-81351523D02*
X81894000Y-81303904D01*
X81846380Y-81208666D01*
X81846380Y-80970571D01*
X81894000Y-80875333D01*
X81941619Y-80827714D01*
X82036857Y-80780095D01*
X82132095Y-80780095D01*
X82274952Y-80827714D01*
X82846380Y-81399142D01*
X82846380Y-80780095D01*
%TO.C,C23*%
X97147142Y-77925142D02*
X97099523Y-77972761D01*
X96956666Y-78020380D01*
X96861428Y-78020380D01*
X96718571Y-77972761D01*
X96623333Y-77877523D01*
X96575714Y-77782285D01*
X96528095Y-77591809D01*
X96528095Y-77448952D01*
X96575714Y-77258476D01*
X96623333Y-77163238D01*
X96718571Y-77068000D01*
X96861428Y-77020380D01*
X96956666Y-77020380D01*
X97099523Y-77068000D01*
X97147142Y-77115619D01*
X97528095Y-77115619D02*
X97575714Y-77068000D01*
X97670952Y-77020380D01*
X97909047Y-77020380D01*
X98004285Y-77068000D01*
X98051904Y-77115619D01*
X98099523Y-77210857D01*
X98099523Y-77306095D01*
X98051904Y-77448952D01*
X97480476Y-78020380D01*
X98099523Y-78020380D01*
X98432857Y-77020380D02*
X99051904Y-77020380D01*
X98718571Y-77401333D01*
X98861428Y-77401333D01*
X98956666Y-77448952D01*
X99004285Y-77496571D01*
X99051904Y-77591809D01*
X99051904Y-77829904D01*
X99004285Y-77925142D01*
X98956666Y-77972761D01*
X98861428Y-78020380D01*
X98575714Y-78020380D01*
X98480476Y-77972761D01*
X98432857Y-77925142D01*
%TO.C,C24*%
X103243142Y-72083142D02*
X103195523Y-72130761D01*
X103052666Y-72178380D01*
X102957428Y-72178380D01*
X102814571Y-72130761D01*
X102719333Y-72035523D01*
X102671714Y-71940285D01*
X102624095Y-71749809D01*
X102624095Y-71606952D01*
X102671714Y-71416476D01*
X102719333Y-71321238D01*
X102814571Y-71226000D01*
X102957428Y-71178380D01*
X103052666Y-71178380D01*
X103195523Y-71226000D01*
X103243142Y-71273619D01*
X103624095Y-71273619D02*
X103671714Y-71226000D01*
X103766952Y-71178380D01*
X104005047Y-71178380D01*
X104100285Y-71226000D01*
X104147904Y-71273619D01*
X104195523Y-71368857D01*
X104195523Y-71464095D01*
X104147904Y-71606952D01*
X103576476Y-72178380D01*
X104195523Y-72178380D01*
X105052666Y-71511714D02*
X105052666Y-72178380D01*
X104814571Y-71130761D02*
X104576476Y-71845047D01*
X105195523Y-71845047D01*
%TO.C,C25*%
X103243142Y-75639142D02*
X103195523Y-75686761D01*
X103052666Y-75734380D01*
X102957428Y-75734380D01*
X102814571Y-75686761D01*
X102719333Y-75591523D01*
X102671714Y-75496285D01*
X102624095Y-75305809D01*
X102624095Y-75162952D01*
X102671714Y-74972476D01*
X102719333Y-74877238D01*
X102814571Y-74782000D01*
X102957428Y-74734380D01*
X103052666Y-74734380D01*
X103195523Y-74782000D01*
X103243142Y-74829619D01*
X103624095Y-74829619D02*
X103671714Y-74782000D01*
X103766952Y-74734380D01*
X104005047Y-74734380D01*
X104100285Y-74782000D01*
X104147904Y-74829619D01*
X104195523Y-74924857D01*
X104195523Y-75020095D01*
X104147904Y-75162952D01*
X103576476Y-75734380D01*
X104195523Y-75734380D01*
X105100285Y-74734380D02*
X104624095Y-74734380D01*
X104576476Y-75210571D01*
X104624095Y-75162952D01*
X104719333Y-75115333D01*
X104957428Y-75115333D01*
X105052666Y-75162952D01*
X105100285Y-75210571D01*
X105147904Y-75305809D01*
X105147904Y-75543904D01*
X105100285Y-75639142D01*
X105052666Y-75686761D01*
X104957428Y-75734380D01*
X104719333Y-75734380D01*
X104624095Y-75686761D01*
X104576476Y-75639142D01*
%TO.C,C26*%
X103243142Y-68781142D02*
X103195523Y-68828761D01*
X103052666Y-68876380D01*
X102957428Y-68876380D01*
X102814571Y-68828761D01*
X102719333Y-68733523D01*
X102671714Y-68638285D01*
X102624095Y-68447809D01*
X102624095Y-68304952D01*
X102671714Y-68114476D01*
X102719333Y-68019238D01*
X102814571Y-67924000D01*
X102957428Y-67876380D01*
X103052666Y-67876380D01*
X103195523Y-67924000D01*
X103243142Y-67971619D01*
X103624095Y-67971619D02*
X103671714Y-67924000D01*
X103766952Y-67876380D01*
X104005047Y-67876380D01*
X104100285Y-67924000D01*
X104147904Y-67971619D01*
X104195523Y-68066857D01*
X104195523Y-68162095D01*
X104147904Y-68304952D01*
X103576476Y-68876380D01*
X104195523Y-68876380D01*
X105052666Y-67876380D02*
X104862190Y-67876380D01*
X104766952Y-67924000D01*
X104719333Y-67971619D01*
X104624095Y-68114476D01*
X104576476Y-68304952D01*
X104576476Y-68685904D01*
X104624095Y-68781142D01*
X104671714Y-68828761D01*
X104766952Y-68876380D01*
X104957428Y-68876380D01*
X105052666Y-68828761D01*
X105100285Y-68781142D01*
X105147904Y-68685904D01*
X105147904Y-68447809D01*
X105100285Y-68352571D01*
X105052666Y-68304952D01*
X104957428Y-68257333D01*
X104766952Y-68257333D01*
X104671714Y-68304952D01*
X104624095Y-68352571D01*
X104576476Y-68447809D01*
%TO.C,D1*%
X36152380Y-94358095D02*
X35152380Y-94358095D01*
X35152380Y-94120000D01*
X35200000Y-93977142D01*
X35295238Y-93881904D01*
X35390476Y-93834285D01*
X35580952Y-93786666D01*
X35723809Y-93786666D01*
X35914285Y-93834285D01*
X36009523Y-93881904D01*
X36104761Y-93977142D01*
X36152380Y-94120000D01*
X36152380Y-94358095D01*
X36152380Y-92834285D02*
X36152380Y-93405714D01*
X36152380Y-93120000D02*
X35152380Y-93120000D01*
X35295238Y-93215238D01*
X35390476Y-93310476D01*
X35438095Y-93405714D01*
%TO.C,D2*%
X29292380Y-94658095D02*
X28292380Y-94658095D01*
X28292380Y-94420000D01*
X28340000Y-94277142D01*
X28435238Y-94181904D01*
X28530476Y-94134285D01*
X28720952Y-94086666D01*
X28863809Y-94086666D01*
X29054285Y-94134285D01*
X29149523Y-94181904D01*
X29244761Y-94277142D01*
X29292380Y-94420000D01*
X29292380Y-94658095D01*
X28387619Y-93705714D02*
X28340000Y-93658095D01*
X28292380Y-93562857D01*
X28292380Y-93324761D01*
X28340000Y-93229523D01*
X28387619Y-93181904D01*
X28482857Y-93134285D01*
X28578095Y-93134285D01*
X28720952Y-93181904D01*
X29292380Y-93753333D01*
X29292380Y-93134285D01*
%TO.C,D3*%
X61529904Y-65754380D02*
X61529904Y-64754380D01*
X61768000Y-64754380D01*
X61910857Y-64802000D01*
X62006095Y-64897238D01*
X62053714Y-64992476D01*
X62101333Y-65182952D01*
X62101333Y-65325809D01*
X62053714Y-65516285D01*
X62006095Y-65611523D01*
X61910857Y-65706761D01*
X61768000Y-65754380D01*
X61529904Y-65754380D01*
X62434666Y-64754380D02*
X63053714Y-64754380D01*
X62720380Y-65135333D01*
X62863238Y-65135333D01*
X62958476Y-65182952D01*
X63006095Y-65230571D01*
X63053714Y-65325809D01*
X63053714Y-65563904D01*
X63006095Y-65659142D01*
X62958476Y-65706761D01*
X62863238Y-65754380D01*
X62577523Y-65754380D01*
X62482285Y-65706761D01*
X62434666Y-65659142D01*
%TO.C,D4*%
X61569904Y-72954380D02*
X61569904Y-71954380D01*
X61808000Y-71954380D01*
X61950857Y-72002000D01*
X62046095Y-72097238D01*
X62093714Y-72192476D01*
X62141333Y-72382952D01*
X62141333Y-72525809D01*
X62093714Y-72716285D01*
X62046095Y-72811523D01*
X61950857Y-72906761D01*
X61808000Y-72954380D01*
X61569904Y-72954380D01*
X62998476Y-72287714D02*
X62998476Y-72954380D01*
X62760380Y-71906761D02*
X62522285Y-72621047D01*
X63141333Y-72621047D01*
%TO.C,J2*%
X25786666Y-63942380D02*
X25786666Y-64656666D01*
X25739047Y-64799523D01*
X25643809Y-64894761D01*
X25500952Y-64942380D01*
X25405714Y-64942380D01*
X26215238Y-64037619D02*
X26262857Y-63990000D01*
X26358095Y-63942380D01*
X26596190Y-63942380D01*
X26691428Y-63990000D01*
X26739047Y-64037619D01*
X26786666Y-64132857D01*
X26786666Y-64228095D01*
X26739047Y-64370952D01*
X26167619Y-64942380D01*
X26786666Y-64942380D01*
%TO.C,J3*%
X93134380Y-63325333D02*
X93848666Y-63325333D01*
X93991523Y-63372952D01*
X94086761Y-63468190D01*
X94134380Y-63611047D01*
X94134380Y-63706285D01*
X93134380Y-62944380D02*
X93134380Y-62325333D01*
X93515333Y-62658666D01*
X93515333Y-62515809D01*
X93562952Y-62420571D01*
X93610571Y-62372952D01*
X93705809Y-62325333D01*
X93943904Y-62325333D01*
X94039142Y-62372952D01*
X94086761Y-62420571D01*
X94134380Y-62515809D01*
X94134380Y-62801523D01*
X94086761Y-62896761D01*
X94039142Y-62944380D01*
%TO.C,J4*%
X31136666Y-64062380D02*
X31136666Y-64776666D01*
X31089047Y-64919523D01*
X30993809Y-65014761D01*
X30850952Y-65062380D01*
X30755714Y-65062380D01*
X32041428Y-64395714D02*
X32041428Y-65062380D01*
X31803333Y-64014761D02*
X31565238Y-64729047D01*
X32184285Y-64729047D01*
%TO.C,J5*%
X30062380Y-105583333D02*
X30776666Y-105583333D01*
X30919523Y-105630952D01*
X31014761Y-105726190D01*
X31062380Y-105869047D01*
X31062380Y-105964285D01*
X30062380Y-104630952D02*
X30062380Y-105107142D01*
X30538571Y-105154761D01*
X30490952Y-105107142D01*
X30443333Y-105011904D01*
X30443333Y-104773809D01*
X30490952Y-104678571D01*
X30538571Y-104630952D01*
X30633809Y-104583333D01*
X30871904Y-104583333D01*
X30967142Y-104630952D01*
X31014761Y-104678571D01*
X31062380Y-104773809D01*
X31062380Y-105011904D01*
X31014761Y-105107142D01*
X30967142Y-105154761D01*
%TO.C,J6*%
X28456666Y-63992380D02*
X28456666Y-64706666D01*
X28409047Y-64849523D01*
X28313809Y-64944761D01*
X28170952Y-64992380D01*
X28075714Y-64992380D01*
X29361428Y-63992380D02*
X29170952Y-63992380D01*
X29075714Y-64040000D01*
X29028095Y-64087619D01*
X28932857Y-64230476D01*
X28885238Y-64420952D01*
X28885238Y-64801904D01*
X28932857Y-64897142D01*
X28980476Y-64944761D01*
X29075714Y-64992380D01*
X29266190Y-64992380D01*
X29361428Y-64944761D01*
X29409047Y-64897142D01*
X29456666Y-64801904D01*
X29456666Y-64563809D01*
X29409047Y-64468571D01*
X29361428Y-64420952D01*
X29266190Y-64373333D01*
X29075714Y-64373333D01*
X28980476Y-64420952D01*
X28932857Y-64468571D01*
X28885238Y-64563809D01*
%TO.C,J7*%
X23352380Y-58753333D02*
X24066666Y-58753333D01*
X24209523Y-58800952D01*
X24304761Y-58896190D01*
X24352380Y-59039047D01*
X24352380Y-59134285D01*
X23352380Y-58372380D02*
X23352380Y-57705714D01*
X24352380Y-58134285D01*
%TO.C,J11*%
X81780476Y-106608380D02*
X81780476Y-107322666D01*
X81732857Y-107465523D01*
X81637619Y-107560761D01*
X81494761Y-107608380D01*
X81399523Y-107608380D01*
X82780476Y-107608380D02*
X82209047Y-107608380D01*
X82494761Y-107608380D02*
X82494761Y-106608380D01*
X82399523Y-106751238D01*
X82304285Y-106846476D01*
X82209047Y-106894095D01*
X83732857Y-107608380D02*
X83161428Y-107608380D01*
X83447142Y-107608380D02*
X83447142Y-106608380D01*
X83351904Y-106751238D01*
X83256666Y-106846476D01*
X83161428Y-106894095D01*
%TO.C,J12*%
X84264476Y-56922380D02*
X84264476Y-57636666D01*
X84216857Y-57779523D01*
X84121619Y-57874761D01*
X83978761Y-57922380D01*
X83883523Y-57922380D01*
X85264476Y-57922380D02*
X84693047Y-57922380D01*
X84978761Y-57922380D02*
X84978761Y-56922380D01*
X84883523Y-57065238D01*
X84788285Y-57160476D01*
X84693047Y-57208095D01*
X85645428Y-57017619D02*
X85693047Y-56970000D01*
X85788285Y-56922380D01*
X86026380Y-56922380D01*
X86121619Y-56970000D01*
X86169238Y-57017619D01*
X86216857Y-57112857D01*
X86216857Y-57208095D01*
X86169238Y-57350952D01*
X85597809Y-57922380D01*
X86216857Y-57922380D01*
%TO.C,R1*%
X32572380Y-93686666D02*
X32096190Y-94020000D01*
X32572380Y-94258095D02*
X31572380Y-94258095D01*
X31572380Y-93877142D01*
X31620000Y-93781904D01*
X31667619Y-93734285D01*
X31762857Y-93686666D01*
X31905714Y-93686666D01*
X32000952Y-93734285D01*
X32048571Y-93781904D01*
X32096190Y-93877142D01*
X32096190Y-94258095D01*
X32572380Y-92734285D02*
X32572380Y-93305714D01*
X32572380Y-93020000D02*
X31572380Y-93020000D01*
X31715238Y-93115238D01*
X31810476Y-93210476D01*
X31858095Y-93305714D01*
%TO.C,R2*%
X71986380Y-73826666D02*
X71510190Y-74160000D01*
X71986380Y-74398095D02*
X70986380Y-74398095D01*
X70986380Y-74017142D01*
X71034000Y-73921904D01*
X71081619Y-73874285D01*
X71176857Y-73826666D01*
X71319714Y-73826666D01*
X71414952Y-73874285D01*
X71462571Y-73921904D01*
X71510190Y-74017142D01*
X71510190Y-74398095D01*
X71081619Y-73445714D02*
X71034000Y-73398095D01*
X70986380Y-73302857D01*
X70986380Y-73064761D01*
X71034000Y-72969523D01*
X71081619Y-72921904D01*
X71176857Y-72874285D01*
X71272095Y-72874285D01*
X71414952Y-72921904D01*
X71986380Y-73493333D01*
X71986380Y-72874285D01*
%TO.C,R3*%
X69192380Y-73826666D02*
X68716190Y-74160000D01*
X69192380Y-74398095D02*
X68192380Y-74398095D01*
X68192380Y-74017142D01*
X68240000Y-73921904D01*
X68287619Y-73874285D01*
X68382857Y-73826666D01*
X68525714Y-73826666D01*
X68620952Y-73874285D01*
X68668571Y-73921904D01*
X68716190Y-74017142D01*
X68716190Y-74398095D01*
X68192380Y-73493333D02*
X68192380Y-72874285D01*
X68573333Y-73207619D01*
X68573333Y-73064761D01*
X68620952Y-72969523D01*
X68668571Y-72921904D01*
X68763809Y-72874285D01*
X69001904Y-72874285D01*
X69097142Y-72921904D01*
X69144761Y-72969523D01*
X69192380Y-73064761D01*
X69192380Y-73350476D01*
X69144761Y-73445714D01*
X69097142Y-73493333D01*
%TO.C,R4*%
X52282380Y-74854666D02*
X51806190Y-75188000D01*
X52282380Y-75426095D02*
X51282380Y-75426095D01*
X51282380Y-75045142D01*
X51330000Y-74949904D01*
X51377619Y-74902285D01*
X51472857Y-74854666D01*
X51615714Y-74854666D01*
X51710952Y-74902285D01*
X51758571Y-74949904D01*
X51806190Y-75045142D01*
X51806190Y-75426095D01*
X51615714Y-73997523D02*
X52282380Y-73997523D01*
X51234761Y-74235619D02*
X51949047Y-74473714D01*
X51949047Y-73854666D01*
%TO.C,R5*%
X77811333Y-71478380D02*
X77478000Y-71002190D01*
X77239904Y-71478380D02*
X77239904Y-70478380D01*
X77620857Y-70478380D01*
X77716095Y-70526000D01*
X77763714Y-70573619D01*
X77811333Y-70668857D01*
X77811333Y-70811714D01*
X77763714Y-70906952D01*
X77716095Y-70954571D01*
X77620857Y-71002190D01*
X77239904Y-71002190D01*
X78716095Y-70478380D02*
X78239904Y-70478380D01*
X78192285Y-70954571D01*
X78239904Y-70906952D01*
X78335142Y-70859333D01*
X78573238Y-70859333D01*
X78668476Y-70906952D01*
X78716095Y-70954571D01*
X78763714Y-71049809D01*
X78763714Y-71287904D01*
X78716095Y-71383142D01*
X78668476Y-71430761D01*
X78573238Y-71478380D01*
X78335142Y-71478380D01*
X78239904Y-71430761D01*
X78192285Y-71383142D01*
%TO.C,R6*%
X32923333Y-106552380D02*
X32590000Y-106076190D01*
X32351904Y-106552380D02*
X32351904Y-105552380D01*
X32732857Y-105552380D01*
X32828095Y-105600000D01*
X32875714Y-105647619D01*
X32923333Y-105742857D01*
X32923333Y-105885714D01*
X32875714Y-105980952D01*
X32828095Y-106028571D01*
X32732857Y-106076190D01*
X32351904Y-106076190D01*
X33780476Y-105552380D02*
X33590000Y-105552380D01*
X33494761Y-105600000D01*
X33447142Y-105647619D01*
X33351904Y-105790476D01*
X33304285Y-105980952D01*
X33304285Y-106361904D01*
X33351904Y-106457142D01*
X33399523Y-106504761D01*
X33494761Y-106552380D01*
X33685238Y-106552380D01*
X33780476Y-106504761D01*
X33828095Y-106457142D01*
X33875714Y-106361904D01*
X33875714Y-106123809D01*
X33828095Y-106028571D01*
X33780476Y-105980952D01*
X33685238Y-105933333D01*
X33494761Y-105933333D01*
X33399523Y-105980952D01*
X33351904Y-106028571D01*
X33304285Y-106123809D01*
%TO.C,R7*%
X32943333Y-103592380D02*
X32610000Y-103116190D01*
X32371904Y-103592380D02*
X32371904Y-102592380D01*
X32752857Y-102592380D01*
X32848095Y-102640000D01*
X32895714Y-102687619D01*
X32943333Y-102782857D01*
X32943333Y-102925714D01*
X32895714Y-103020952D01*
X32848095Y-103068571D01*
X32752857Y-103116190D01*
X32371904Y-103116190D01*
X33276666Y-102592380D02*
X33943333Y-102592380D01*
X33514761Y-103592380D01*
%TO.C,R8*%
X105448380Y-85510666D02*
X104972190Y-85844000D01*
X105448380Y-86082095D02*
X104448380Y-86082095D01*
X104448380Y-85701142D01*
X104496000Y-85605904D01*
X104543619Y-85558285D01*
X104638857Y-85510666D01*
X104781714Y-85510666D01*
X104876952Y-85558285D01*
X104924571Y-85605904D01*
X104972190Y-85701142D01*
X104972190Y-86082095D01*
X104876952Y-84939238D02*
X104829333Y-85034476D01*
X104781714Y-85082095D01*
X104686476Y-85129714D01*
X104638857Y-85129714D01*
X104543619Y-85082095D01*
X104496000Y-85034476D01*
X104448380Y-84939238D01*
X104448380Y-84748761D01*
X104496000Y-84653523D01*
X104543619Y-84605904D01*
X104638857Y-84558285D01*
X104686476Y-84558285D01*
X104781714Y-84605904D01*
X104829333Y-84653523D01*
X104876952Y-84748761D01*
X104876952Y-84939238D01*
X104924571Y-85034476D01*
X104972190Y-85082095D01*
X105067428Y-85129714D01*
X105257904Y-85129714D01*
X105353142Y-85082095D01*
X105400761Y-85034476D01*
X105448380Y-84939238D01*
X105448380Y-84748761D01*
X105400761Y-84653523D01*
X105353142Y-84605904D01*
X105257904Y-84558285D01*
X105067428Y-84558285D01*
X104972190Y-84605904D01*
X104924571Y-84653523D01*
X104876952Y-84748761D01*
%TO.C,R9*%
X96607333Y-94846380D02*
X96274000Y-94370190D01*
X96035904Y-94846380D02*
X96035904Y-93846380D01*
X96416857Y-93846380D01*
X96512095Y-93894000D01*
X96559714Y-93941619D01*
X96607333Y-94036857D01*
X96607333Y-94179714D01*
X96559714Y-94274952D01*
X96512095Y-94322571D01*
X96416857Y-94370190D01*
X96035904Y-94370190D01*
X97083523Y-94846380D02*
X97274000Y-94846380D01*
X97369238Y-94798761D01*
X97416857Y-94751142D01*
X97512095Y-94608285D01*
X97559714Y-94417809D01*
X97559714Y-94036857D01*
X97512095Y-93941619D01*
X97464476Y-93894000D01*
X97369238Y-93846380D01*
X97178761Y-93846380D01*
X97083523Y-93894000D01*
X97035904Y-93941619D01*
X96988285Y-94036857D01*
X96988285Y-94274952D01*
X97035904Y-94370190D01*
X97083523Y-94417809D01*
X97178761Y-94465428D01*
X97369238Y-94465428D01*
X97464476Y-94417809D01*
X97512095Y-94370190D01*
X97559714Y-94274952D01*
%TO.C,R10*%
X62857142Y-75730380D02*
X62523809Y-75254190D01*
X62285714Y-75730380D02*
X62285714Y-74730380D01*
X62666666Y-74730380D01*
X62761904Y-74778000D01*
X62809523Y-74825619D01*
X62857142Y-74920857D01*
X62857142Y-75063714D01*
X62809523Y-75158952D01*
X62761904Y-75206571D01*
X62666666Y-75254190D01*
X62285714Y-75254190D01*
X63809523Y-75730380D02*
X63238095Y-75730380D01*
X63523809Y-75730380D02*
X63523809Y-74730380D01*
X63428571Y-74873238D01*
X63333333Y-74968476D01*
X63238095Y-75016095D01*
X64428571Y-74730380D02*
X64523809Y-74730380D01*
X64619047Y-74778000D01*
X64666666Y-74825619D01*
X64714285Y-74920857D01*
X64761904Y-75111333D01*
X64761904Y-75349428D01*
X64714285Y-75539904D01*
X64666666Y-75635142D01*
X64619047Y-75682761D01*
X64523809Y-75730380D01*
X64428571Y-75730380D01*
X64333333Y-75682761D01*
X64285714Y-75635142D01*
X64238095Y-75539904D01*
X64190476Y-75349428D01*
X64190476Y-75111333D01*
X64238095Y-74920857D01*
X64285714Y-74825619D01*
X64333333Y-74778000D01*
X64428571Y-74730380D01*
%TO.C,R11*%
X96558380Y-97162857D02*
X96082190Y-97496190D01*
X96558380Y-97734285D02*
X95558380Y-97734285D01*
X95558380Y-97353333D01*
X95606000Y-97258095D01*
X95653619Y-97210476D01*
X95748857Y-97162857D01*
X95891714Y-97162857D01*
X95986952Y-97210476D01*
X96034571Y-97258095D01*
X96082190Y-97353333D01*
X96082190Y-97734285D01*
X96558380Y-96210476D02*
X96558380Y-96781904D01*
X96558380Y-96496190D02*
X95558380Y-96496190D01*
X95701238Y-96591428D01*
X95796476Y-96686666D01*
X95844095Y-96781904D01*
X96558380Y-95258095D02*
X96558380Y-95829523D01*
X96558380Y-95543809D02*
X95558380Y-95543809D01*
X95701238Y-95639047D01*
X95796476Y-95734285D01*
X95844095Y-95829523D01*
%TO.C,R12*%
X99606380Y-97162857D02*
X99130190Y-97496190D01*
X99606380Y-97734285D02*
X98606380Y-97734285D01*
X98606380Y-97353333D01*
X98654000Y-97258095D01*
X98701619Y-97210476D01*
X98796857Y-97162857D01*
X98939714Y-97162857D01*
X99034952Y-97210476D01*
X99082571Y-97258095D01*
X99130190Y-97353333D01*
X99130190Y-97734285D01*
X99606380Y-96210476D02*
X99606380Y-96781904D01*
X99606380Y-96496190D02*
X98606380Y-96496190D01*
X98749238Y-96591428D01*
X98844476Y-96686666D01*
X98892095Y-96781904D01*
X98701619Y-95829523D02*
X98654000Y-95781904D01*
X98606380Y-95686666D01*
X98606380Y-95448571D01*
X98654000Y-95353333D01*
X98701619Y-95305714D01*
X98796857Y-95258095D01*
X98892095Y-95258095D01*
X99034952Y-95305714D01*
X99606380Y-95877142D01*
X99606380Y-95258095D01*
%TO.C,R13*%
X57545142Y-65904380D02*
X57211809Y-65428190D01*
X56973714Y-65904380D02*
X56973714Y-64904380D01*
X57354666Y-64904380D01*
X57449904Y-64952000D01*
X57497523Y-64999619D01*
X57545142Y-65094857D01*
X57545142Y-65237714D01*
X57497523Y-65332952D01*
X57449904Y-65380571D01*
X57354666Y-65428190D01*
X56973714Y-65428190D01*
X58497523Y-65904380D02*
X57926095Y-65904380D01*
X58211809Y-65904380D02*
X58211809Y-64904380D01*
X58116571Y-65047238D01*
X58021333Y-65142476D01*
X57926095Y-65190095D01*
X58830857Y-64904380D02*
X59449904Y-64904380D01*
X59116571Y-65285333D01*
X59259428Y-65285333D01*
X59354666Y-65332952D01*
X59402285Y-65380571D01*
X59449904Y-65475809D01*
X59449904Y-65713904D01*
X59402285Y-65809142D01*
X59354666Y-65856761D01*
X59259428Y-65904380D01*
X58973714Y-65904380D01*
X58878476Y-65856761D01*
X58830857Y-65809142D01*
%TO.C,R14*%
X57590142Y-69924380D02*
X57256809Y-69448190D01*
X57018714Y-69924380D02*
X57018714Y-68924380D01*
X57399666Y-68924380D01*
X57494904Y-68972000D01*
X57542523Y-69019619D01*
X57590142Y-69114857D01*
X57590142Y-69257714D01*
X57542523Y-69352952D01*
X57494904Y-69400571D01*
X57399666Y-69448190D01*
X57018714Y-69448190D01*
X58542523Y-69924380D02*
X57971095Y-69924380D01*
X58256809Y-69924380D02*
X58256809Y-68924380D01*
X58161571Y-69067238D01*
X58066333Y-69162476D01*
X57971095Y-69210095D01*
X59399666Y-69257714D02*
X59399666Y-69924380D01*
X59161571Y-68876761D02*
X58923476Y-69591047D01*
X59542523Y-69591047D01*
%TO.C,R15*%
X49822380Y-97416857D02*
X49346190Y-97750190D01*
X49822380Y-97988285D02*
X48822380Y-97988285D01*
X48822380Y-97607333D01*
X48870000Y-97512095D01*
X48917619Y-97464476D01*
X49012857Y-97416857D01*
X49155714Y-97416857D01*
X49250952Y-97464476D01*
X49298571Y-97512095D01*
X49346190Y-97607333D01*
X49346190Y-97988285D01*
X49822380Y-96464476D02*
X49822380Y-97035904D01*
X49822380Y-96750190D02*
X48822380Y-96750190D01*
X48965238Y-96845428D01*
X49060476Y-96940666D01*
X49108095Y-97035904D01*
X48822380Y-95559714D02*
X48822380Y-96035904D01*
X49298571Y-96083523D01*
X49250952Y-96035904D01*
X49203333Y-95940666D01*
X49203333Y-95702571D01*
X49250952Y-95607333D01*
X49298571Y-95559714D01*
X49393809Y-95512095D01*
X49631904Y-95512095D01*
X49727142Y-95559714D01*
X49774761Y-95607333D01*
X49822380Y-95702571D01*
X49822380Y-95940666D01*
X49774761Y-96035904D01*
X49727142Y-96083523D01*
%TO.C,SW1*%
X69786666Y-71360761D02*
X69929523Y-71408380D01*
X70167619Y-71408380D01*
X70262857Y-71360761D01*
X70310476Y-71313142D01*
X70358095Y-71217904D01*
X70358095Y-71122666D01*
X70310476Y-71027428D01*
X70262857Y-70979809D01*
X70167619Y-70932190D01*
X69977142Y-70884571D01*
X69881904Y-70836952D01*
X69834285Y-70789333D01*
X69786666Y-70694095D01*
X69786666Y-70598857D01*
X69834285Y-70503619D01*
X69881904Y-70456000D01*
X69977142Y-70408380D01*
X70215238Y-70408380D01*
X70358095Y-70456000D01*
X70691428Y-70408380D02*
X70929523Y-71408380D01*
X71120000Y-70694095D01*
X71310476Y-71408380D01*
X71548571Y-70408380D01*
X72453333Y-71408380D02*
X71881904Y-71408380D01*
X72167619Y-71408380D02*
X72167619Y-70408380D01*
X72072380Y-70551238D01*
X71977142Y-70646476D01*
X71881904Y-70694095D01*
%TO.C,SW2*%
X58610666Y-89214761D02*
X58753523Y-89262380D01*
X58991619Y-89262380D01*
X59086857Y-89214761D01*
X59134476Y-89167142D01*
X59182095Y-89071904D01*
X59182095Y-88976666D01*
X59134476Y-88881428D01*
X59086857Y-88833809D01*
X58991619Y-88786190D01*
X58801142Y-88738571D01*
X58705904Y-88690952D01*
X58658285Y-88643333D01*
X58610666Y-88548095D01*
X58610666Y-88452857D01*
X58658285Y-88357619D01*
X58705904Y-88310000D01*
X58801142Y-88262380D01*
X59039238Y-88262380D01*
X59182095Y-88310000D01*
X59515428Y-88262380D02*
X59753523Y-89262380D01*
X59944000Y-88548095D01*
X60134476Y-89262380D01*
X60372571Y-88262380D01*
X60705904Y-88357619D02*
X60753523Y-88310000D01*
X60848761Y-88262380D01*
X61086857Y-88262380D01*
X61182095Y-88310000D01*
X61229714Y-88357619D01*
X61277333Y-88452857D01*
X61277333Y-88548095D01*
X61229714Y-88690952D01*
X60658285Y-89262380D01*
X61277333Y-89262380D01*
%TO.C,U1*%
D18*
X27070380Y-97946904D02*
X27879904Y-97946904D01*
X27975142Y-97899285D01*
X28022761Y-97851666D01*
X28070380Y-97756428D01*
X28070380Y-97565952D01*
X28022761Y-97470714D01*
X27975142Y-97423095D01*
X27879904Y-97375476D01*
X27070380Y-97375476D01*
X28070380Y-96375476D02*
X28070380Y-96946904D01*
X28070380Y-96661190D02*
X27070380Y-96661190D01*
X27213238Y-96756428D01*
X27308476Y-96851666D01*
X27356095Y-96946904D01*
%TO.C,U2*%
D11*
X71120095Y-82510380D02*
X71120095Y-83319904D01*
X71167714Y-83415142D01*
X71215333Y-83462761D01*
X71310571Y-83510380D01*
X71501047Y-83510380D01*
X71596285Y-83462761D01*
X71643904Y-83415142D01*
X71691523Y-83319904D01*
X71691523Y-82510380D01*
X72120095Y-82605619D02*
X72167714Y-82558000D01*
X72262952Y-82510380D01*
X72501047Y-82510380D01*
X72596285Y-82558000D01*
X72643904Y-82605619D01*
X72691523Y-82700857D01*
X72691523Y-82796095D01*
X72643904Y-82938952D01*
X72072476Y-83510380D01*
X72691523Y-83510380D01*
%TO.C,U3*%
X43608095Y-64935380D02*
X43608095Y-65744904D01*
X43655714Y-65840142D01*
X43703333Y-65887761D01*
X43798571Y-65935380D01*
X43989047Y-65935380D01*
X44084285Y-65887761D01*
X44131904Y-65840142D01*
X44179523Y-65744904D01*
X44179523Y-64935380D01*
X44560476Y-64935380D02*
X45179523Y-64935380D01*
X44846190Y-65316333D01*
X44989047Y-65316333D01*
X45084285Y-65363952D01*
X45131904Y-65411571D01*
X45179523Y-65506809D01*
X45179523Y-65744904D01*
X45131904Y-65840142D01*
X45084285Y-65887761D01*
X44989047Y-65935380D01*
X44703333Y-65935380D01*
X44608095Y-65887761D01*
X44560476Y-65840142D01*
%TO.C,U4*%
D18*
X97129095Y-82785380D02*
X97129095Y-83594904D01*
X97176714Y-83690142D01*
X97224333Y-83737761D01*
X97319571Y-83785380D01*
X97510047Y-83785380D01*
X97605285Y-83737761D01*
X97652904Y-83690142D01*
X97700523Y-83594904D01*
X97700523Y-82785380D01*
X98605285Y-83118714D02*
X98605285Y-83785380D01*
X98367190Y-82737761D02*
X98129095Y-83452047D01*
X98748142Y-83452047D01*
%TO.C,U6*%
D11*
X89662095Y-68700380D02*
X89662095Y-69509904D01*
X89709714Y-69605142D01*
X89757333Y-69652761D01*
X89852571Y-69700380D01*
X90043047Y-69700380D01*
X90138285Y-69652761D01*
X90185904Y-69605142D01*
X90233523Y-69509904D01*
X90233523Y-68700380D01*
X91138285Y-68700380D02*
X90947809Y-68700380D01*
X90852571Y-68748000D01*
X90804952Y-68795619D01*
X90709714Y-68938476D01*
X90662095Y-69128952D01*
X90662095Y-69509904D01*
X90709714Y-69605142D01*
X90757333Y-69652761D01*
X90852571Y-69700380D01*
X91043047Y-69700380D01*
X91138285Y-69652761D01*
X91185904Y-69605142D01*
X91233523Y-69509904D01*
X91233523Y-69271809D01*
X91185904Y-69176571D01*
X91138285Y-69128952D01*
X91043047Y-69081333D01*
X90852571Y-69081333D01*
X90757333Y-69128952D01*
X90709714Y-69176571D01*
X90662095Y-69271809D01*
%TO.C,U7*%
X99020380Y-74675904D02*
X99829904Y-74675904D01*
X99925142Y-74628285D01*
X99972761Y-74580666D01*
X100020380Y-74485428D01*
X100020380Y-74294952D01*
X99972761Y-74199714D01*
X99925142Y-74152095D01*
X99829904Y-74104476D01*
X99020380Y-74104476D01*
X99020380Y-73723523D02*
X99020380Y-73056857D01*
X100020380Y-73485428D01*
X100020380Y-77556857D02*
X99020380Y-77556857D01*
X100020380Y-77080666D02*
X99020380Y-77080666D01*
X99972761Y-76652095D02*
X100020380Y-76509238D01*
X100020380Y-76271142D01*
X99972761Y-76175904D01*
X99925142Y-76128285D01*
X99829904Y-76080666D01*
X99734666Y-76080666D01*
X99639428Y-76128285D01*
X99591809Y-76175904D01*
X99544190Y-76271142D01*
X99496571Y-76461619D01*
X99448952Y-76556857D01*
X99401333Y-76604476D01*
X99306095Y-76652095D01*
X99210857Y-76652095D01*
X99115619Y-76604476D01*
X99068000Y-76556857D01*
X99020380Y-76461619D01*
X99020380Y-76223523D01*
X99068000Y-76080666D01*
X99115619Y-75699714D02*
X99068000Y-75652095D01*
X99020380Y-75556857D01*
X99020380Y-75318761D01*
X99068000Y-75223523D01*
X99115619Y-75175904D01*
X99210857Y-75128285D01*
X99306095Y-75128285D01*
X99448952Y-75175904D01*
X100020380Y-75747333D01*
X100020380Y-75128285D01*
X100020380Y-74699714D02*
X99020380Y-74699714D01*
X99734666Y-74366380D01*
X99020380Y-74033047D01*
X100020380Y-74033047D01*
X100020380Y-73556857D02*
X99020380Y-73556857D01*
X99020380Y-73318761D01*
X99068000Y-73175904D01*
X99163238Y-73080666D01*
X99258476Y-73033047D01*
X99448952Y-72985428D01*
X99591809Y-72985428D01*
X99782285Y-73033047D01*
X99877523Y-73080666D01*
X99972761Y-73175904D01*
X100020380Y-73318761D01*
X100020380Y-73556857D01*
X99925142Y-71985428D02*
X99972761Y-72033047D01*
X100020380Y-72175904D01*
X100020380Y-72271142D01*
X99972761Y-72414000D01*
X99877523Y-72509238D01*
X99782285Y-72556857D01*
X99591809Y-72604476D01*
X99448952Y-72604476D01*
X99258476Y-72556857D01*
X99163238Y-72509238D01*
X99068000Y-72414000D01*
X99020380Y-72271142D01*
X99020380Y-72175904D01*
X99068000Y-72033047D01*
X99115619Y-71985428D01*
X99020380Y-71699714D02*
X99020380Y-71128285D01*
X100020380Y-71414000D02*
X99020380Y-71414000D01*
X100020380Y-70223523D02*
X99544190Y-70556857D01*
X100020380Y-70794952D02*
X99020380Y-70794952D01*
X99020380Y-70414000D01*
X99068000Y-70318761D01*
X99115619Y-70271142D01*
X99210857Y-70223523D01*
X99353714Y-70223523D01*
X99448952Y-70271142D01*
X99496571Y-70318761D01*
X99544190Y-70414000D01*
X99544190Y-70794952D01*
X98020380Y-75526900D02*
X98258476Y-75526900D01*
X98163238Y-75764995D02*
X98258476Y-75526900D01*
X98163238Y-75288804D01*
X98448952Y-75669757D02*
X98258476Y-75526900D01*
X98448952Y-75384042D01*
X98020380Y-75526900D02*
X98258476Y-75526900D01*
X98163238Y-75764995D02*
X98258476Y-75526900D01*
X98163238Y-75288804D01*
X98448952Y-75669757D02*
X98258476Y-75526900D01*
X98448952Y-75384042D01*
%TO.C,Y1*%
X56364190Y-83026190D02*
X56840380Y-83026190D01*
X55840380Y-83359523D02*
X56364190Y-83026190D01*
X55840380Y-82692857D01*
X56840380Y-81835714D02*
X56840380Y-82407142D01*
X56840380Y-82121428D02*
X55840380Y-82121428D01*
X55983238Y-82216666D01*
X56078476Y-82311904D01*
X56126095Y-82407142D01*
%TO.C,J1*%
X26592380Y-87373333D02*
X27306666Y-87373333D01*
X27449523Y-87420952D01*
X27544761Y-87516190D01*
X27592380Y-87659047D01*
X27592380Y-87754285D01*
X27592380Y-86373333D02*
X27592380Y-86944761D01*
X27592380Y-86659047D02*
X26592380Y-86659047D01*
X26735238Y-86754285D01*
X26830476Y-86849523D01*
X26878095Y-86944761D01*
%TD*%
M02*
